<?xml version="1.0" encoding="utf-8"?>
<!-- Generator: Adobe Illustrator 26.0.2, SVG Export Plug-In . SVG Version: 6.00 Build 0)  -->
<svg version="1.1" id="Strokes" xmlns="http://www.w3.org/2000/svg" xmlns:xlink="http://www.w3.org/1999/xlink" x="0px" y="0px"
	 viewBox="0 0 240 300" style="enable-background:new 0 0 240 300;" xml:space="preserve">
<style type="text/css">
	.st0{fill:#25282D;}
</style>
<g>
	<path class="st0" d="M151.2,93.8c-0.3-0.1-0.6-0.2-0.9-0.1c-0.1,0-0.2,0-0.3,0.2c-0.1,0.4-0.3,0.4-0.5,0.2c-0.1-0.1-0.1-0.1-0.2,0
		c0,0.7,0,1.3,0.2,2c0,0.1,0.1,0.2,0.1,0.2c0.2-0.1,0.4-0.2,0.5-0.3c0.1-0.2,0.3-0.2,0.4-0.2s0.1,0,0.2-0.1c0.1-0.1,0.3-0.2,0.5-0.2
		c0.3,0.1,0.7-0.1,0.8-0.4c0-0.1,0.2-0.1,0.2-0.1l0,0.1c0.1,0,0.1,0,0.2,0c0-0.2,0-0.5-0.1-0.7c0-0.3-0.1-0.5-0.2-0.8
		c-0.1,0,0-0.1-0.2,0S151.5,93.9,151.2,93.8z"/>
	<path class="st0" d="M153.2,93.4c-0.1,0.1-0.1,0.2-0.2,0.4c0,0.3,0,0.5,0,0.8c0,0.2,0.1,0.5,0.1,0.7c0.2,0.5,0.4,0.3,0.4-0.2
		c0-0.3,0-0.6-0.1-0.9C153.4,93.6,153.3,93.3,153.2,93.4z"/>
	<path class="st0" d="M133.1,27.5c0.1,0,0.2,0.1,0.3,0.1l0.6,0.2c0.5,0.1,1.1,0.1,1.6-0.1c1.2-0.5,2.1-1.3,2.8-2.4
		c0.1-0.2,0.2-0.5,0.3-0.8c0.2-0.4,0.3-1,0.4-1.3c0.1-0.2,0.2-0.5,0.2-0.7v-0.2v-0.1c0,0,0-0.1,0-0.1c0-0.1,0-0.1,0-0.2
		c0.2-0.3,0.1-0.6,0.2-0.9c0-0.2,0-0.4,0.1-0.6c0.2-0.4,0.5-0.8,0.8-1.2c0.2-0.2,0.3-0.4,0.4-0.6c0.1-0.3,0.1-0.5,0.1-0.8
		c-0.1-0.6,0.4-0.8,0.8-1c0.2-0.1,0.3-0.1,0.5-0.1c0.1,0,0.2-0.2,0.2-0.2c-0.3-0.2-0.7-0.3-1-0.2c-0.6,0.1-1.2,0.4-1.8,0.6l-0.6,0.2
		c-0.2,0.3-0.3,0.7-0.6,1c-0.2,0.3-0.3,0.7-0.6,1c-0.3,0.3-0.5,0.8-0.6,1s0,0.5,0,0.7c-0.1,0.6-0.1,1.1-0.1,1.7c0,0,0,0.1,0,0.1
		c-0.2,0.3-0.3,0.7-0.4,1.1c-0.1,0.1-0.1,0.2-0.2,0.3c-0.3,0.2-0.5,0.5-0.7,0.9c-0.2,0.4-0.6,0.7-1,0.9c-0.5,0.2-0.9,0.5-1.3,0.8
		c-0.1,0.1-0.2,0.1-0.2,0.2l-0.1,0.2l-0.1,0.1v-1.9l-0.1,2.2h0.1L133.1,27.5z"/>
	<path class="st0" d="M71,17.3c0.2,0,0.4-0.1,0.6-0.1l0.4-0.1c0.2-0.1,0.3-0.1,0.5-0.2c0.3-0.2,0.5-0.5,0.6-0.8l0.3-0.7
		c0-0.2,0.1-0.3,0.2-0.4c0.1-0.3,0.3-0.5,0.5-0.7c1.3-1.4,3.2-2.3,5.1-2.4c2-0.1,3.9,0.6,5.4,1.8c0.3,0.3,0.8,0.6,1.2,0.8
		c0,0,0,0,0,0c1,0.3,1.6,1.3,1.3,2.3c-0.1,0.5-0.1,1.1,0,1.6c0.1,0.4,0.7,0.8,0.7,1.2s-0.5,1-0.7,1.4c-0.1,0.1,0.1,0.2,0.2,0.4
		c0,0,0,0,0.1,0.1c0.2,0.2,0.2,0.6-0.1,0.8c-0.5,0.7-1,1.5-1.5,2.3c-0.3,0.8-0.8,1.5-1.4,2.1c-0.6,0.7-1.5,1-2.4,0.8
		c-0.4-0.1-0.6,0.2-0.9,0.4c-0.2,0.2-0.4,0.5-0.5,0.7c-0.2,0.2-0.4,0.3-0.9,0.2c-0.5-0.2-1.2,0.4-1.6,1.3c-0.4,0.8-0.5,1.7-0.7,2
		c-0.2,0.3-0.3,0.7-0.3,1.1c-0.3,2.4-0.4,4.7-0.5,7.1l0,0.8c-0.8,0.2-2,0.4-2.4-0.1c-0.2-0.2-0.3-0.1-0.6,0.1
		c-0.3,0.2-0.4,1-0.9,0.3c-0.5-0.8-1.6,0.5-2,0.4c-0.8-0.1-1.6,0.1-2.3,0.4c-0.8,0.3-1.5,0.6-2.3,1c-0.5,0.2-0.6,0.3-0.8,0.4
		s-0.3,0.9-0.2,1.3c0.3,0.6,1,0.9,1.6,0.8l0.3-0.1c0.1,0,0.1,0,0.1,0c1-0.5,2-0.8,3.1-1c1.4-0.3,2.7-0.6,3.1-1.3
		c0-0.1,0.1-0.2,0.2-0.1c0.9,1.1,3,0.2,3.7,0.4c0.4,0,0.9-0.1,1.2-0.3c0.8-0.8,1.6-0.5,2.3,0.2c0.4,0.5,1.1,0.6,1.7,0.3
		c0.4-0.2,0.8-0.3,1.2-0.2c1.5,0.4,3,0.9,4.4,1.5c1.4,0.6,2.7,1.4,4,2.2l1.6,1c0.3,0.2,0.6,0.3,1,0.3c0,0,0,0.1,0,0.1
		c0.1,0.5,0.1,1,0.1,1.4c-0.1,0.4-0.1,0.8,0,1.2c0,0.4,0,0.7,0,1.1c0,0.9-0.2,1.8-0.3,2.7c0,0-0.1-0.1-0.1-0.1
		c-0.1-0.1-0.1-0.1-0.2-0.2l-0.1-0.1c0,0-0.1-0.1-0.1-0.1c-0.4-0.3-0.9-0.6-1.3-0.8c-0.5-0.3-0.9-0.7-1.6-0.6
		c-0.8-0.3-1.6-0.6-2.3-1.1c-1-0.6-2.1-1.1-2.3-1.2c-1.7-0.6-3-1-4.2-1.3c-1.5-0.4-3-0.7-4.5-0.8c-0.3,0-1.8-0.2-2.1,0.4
		c-0.6,0-2.7,1-3.1,0.6c-0.5-0.4-2-0.2-3.5,0.4c-1.2,0.5-2.4,1-3.5,1.7L65,51.9c-0.1-0.6-0.1-1.2-0.1-1.8c0.1-0.4,0.2-0.9,0.2-1.3
		c0.1-0.5,0.2-1.1,0.2-1.6c0-0.2,0-0.3-0.1-0.5c-0.1-0.3-0.5-0.5-0.8-0.5c-0.4,0.1-0.7,0.4-0.8,0.8c-0.1,0.3-0.2,0.7-0.2,1
		c0.1,0.7,0.1,1.3-0.1,2c-0.1,0.7-0.1,1.3-0.1,2c0,0.1,0,0.3,0.1,0.4c0.2,0.9,0.5,1.7,0.9,2.5c0.4,0.7,0.9,1.4,1.4,2
		c0.1,0.1,0.1,0.2,0.2,0.2c0.1,0.4,0.3,0.8,0.5,1.2c0.3,0.8,0.7,1.5,1.2,2.1c0.4,0.5,0.7,1,0.9,1.5c0.1,0.4,0.3,0.7,0.5,1
		c0.1,0.2,0.4,0.4,0.6,0.5c0.2,0,0.3,0,0.3-0.1c0.1-0.6,0-1.2-0.3-1.7c-0.3-0.5-0.6-1.1-0.6-1.7c-0.1-0.5-0.3-0.9-0.5-1.4
		c-0.1-0.3-0.3-0.6-0.6-0.7c-0.2-0.1-0.4-0.3-0.6-0.5l-0.7-1c-0.5-0.6-0.8-1.3-1-2c0,0,0-0.1,0-0.1c0.1,0,0.3,0,0.4,0
		c0.2,0,0.4-0.1,0.5-0.2c0.8-0.4,1.7-0.8,2.6-1.1c1-0.3,2-0.7,3-1.2c0.8-0.3,1.7-0.5,2.6-0.6c1.6-0.2,2.6-0.3,3.6-0.3
		c1-0.1,1.9,0,2.9,0.1c2.1,0.5,4.2,1.2,6.2,2c2,0.9,3.8,1.9,5.6,3.1l0.1,0.1H93l0.2,0.2l1,0.5c0,0.2,0,0.3-0.1,0.4
		c-0.2,0.8-0.3,1.7-0.3,2.5c0,0.3,0,0.6-0.1,0.8c-0.2,0.9-0.3,1.8-0.5,2.6l0,0c-0.1,0.6-0.2,1.2-0.4,1.8c-0.1,0.3-0.1,0.6,0,0.9
		c0,0.2,0.1,0.4,0.3,0.5c0.3,0.2,0.6,0.1,0.7-0.2c0.2-0.2,0.3-0.4,0.5-0.6c0.1-0.2,0.2-0.5,0.3-0.7c0.1-0.3,0.2-0.6,0.2-0.9l0.1-0.9
		c0.2-0.9,0.2-1.7,0.3-2.5l0.3-2.4c0.2-1.6,0.4-3.2,0.6-4.9c0-0.4,0.1-0.8,0.1-1.2c0.3-1.5,0.2-3-0.3-4.5c-0.2-0.6-0.6-0.8-0.9-0.5
		c0-0.6-0.2-1.2-0.8-1.8c-0.5-0.5-0.5-0.5-0.6-0.5c-0.2,0-0.3,0-0.5,0C92.8,45,92.4,45,92,44.7c-1.1-0.6-2.3-1.2-3.5-1.7
		c-1.1-0.5-2.3-0.9-3.5-1.2c-0.3-0.1-0.7-0.1-1,0.1c-0.1,0.1-0.2,0.2-0.3,0.2c-0.5,0.2-1.1,0-1.3-0.5c-0.2-0.3-0.6-0.5-0.9-0.6
		c-0.3,0-0.6,0.6-0.8,0.5c-0.3,0-0.5-0.5-0.8-0.7c-0.1-0.1-0.2,0.1-0.2,0.2c-0.2,0.3-0.4,0.3-0.5,0.1c-0.1-0.1-0.1-0.1-0.2-0.1
		c0.1-0.1,0.1-0.2,0.1-0.3c0-0.1,0.1-0.2,0.1-0.3c0-0.2,0-0.1,0-0.2c-0.1-0.9,0.5-4.1,0.7-7c0.1-0.7,0.3-1.4,0.7-1.9
		c0.3-0.4,0.6-0.8,0.8-1.3c0-0.1,0.1-0.2,0.2-0.2c0.5,0.1,1.1,0.1,1.6,0c0.7-0.2,1.4-0.5,2.1-0.9c1.1-0.8,2-1.8,2.8-2.9
		c0.5-0.7,0.9-1.6,0.9-2.5c-0.1-0.8-0.1-1.6,0-2.4c0.1-0.4,0.1-0.7,0.2-1c0.1-0.4,0.3-0.8,0.4-1.2c0.4-1.2,0.1-2.6-0.8-3.5
		c-0.6-0.6-1.1-1.2-1.7-1.8c-1.9-2.5-5-3.9-8.1-3.7c-1.7,0.1-3.4,0.7-4.9,1.7c-0.7,0.4-1.3,0.9-1.8,1.5c-0.2,0.3-0.5,0.5-0.7,0.8
		l-0.2,0.3l-0.2,0.2c-0.1,0.1-0.2,0.2-0.4,0.3l-0.1,0.1l-0.2,0.1c-0.2,0-0.4,0.1-0.6,0.1h-0.4c-0.2,0-0.4,0-0.5,0.1
		c-0.3,0.1-0.4,0.6-0.2,1.2C69.1,16.9,70,17.5,71,17.3z"/>
	<path class="st0" d="M209.1,169.1c-0.3-1.6-0.4-3.2-0.3-4.8c0-0.3,0-0.7,0-1c-0.2-0.8-0.4-1.6-0.7-2.3c0-0.1,0,0,0-0.1
		s-0.2-0.1-0.2-0.1c-0.1,0.1-0.2,0.2-0.3,0.3c-0.3,0.5-0.5,1.1-0.4,1.7c0,0.7,0.2,1.4,0.4,2c0.2,0.6,0.3,1.2,0.1,1.8
		c-0.2,1-0.3,2.1-0.2,3.2c0,0.5,0.1,0.9,0.2,1.3c0.1,0.5,0.2,1.1,0.4,1.6c0.1,0.3,0.2,0.7,0.2,1c0,0.6-0.1,1.1-0.1,1.7
		c-0.1,0.4-0.1,0.9-0.2,1.3c-0.4,1.3-0.6,2.6-0.7,4c0,0.3-0.1,0.7-0.1,1c-0.1,1.2-0.2,2.4-0.5,3.6c-0.4,1.9-0.7,3.8-1,5.7
		c-0.1,0.4-0.1,0.7-0.2,1.1c-0.2,1-0.3,2-0.3,3.1c0,0.9,0,1.8,0,2.6c0,0.3,0,0.6-0.1,0.9c0,0.3-0.1,0.5-0.2,0.8s-0.2,0.7-0.2,1.1
		c-0.1,0.4,0,0.8,0.3,1.1c0.2,0.2,0.5,0.1,0.8-0.2c0.1-0.1,0.2-0.2,0.2-0.4c0.5-1.3,0.8-2.6,0.7-4c-0.1-1,0-1.9,0.1-2.9l1-6.7
		c0.2-1,0.3-2.2,0.4-3.2c0.1-1.3,0.2-2.5,0.3-3.8c0-0.2,0-0.4,0-0.6c0-1.1,0.1-2.2,0.2-3.2c0.1-0.9,0.3-1.9,0.3-2.8
		c0-0.5,0.1-1,0.1-1.5c0.1-0.7,0.1-1.4,0-2.1C209.2,170,209.1,169.6,209.1,169.1z"/>
	<path class="st0" d="M204.2,134.2c0,0.4,0,0.8,0,1.2c0.1,0.6,0.2,1.2,0.3,1.8c0.1,0.5,0.3,1,0.7,1.4c0.3,0.2,0.4,0.2,0.5-0.2V138
		c0.1-1.1,0-2.2-0.2-3.3c-0.2-0.8-0.3-1.7-0.3-2.5c0-1.3,0-2.5,0-3.8c0.1-0.5,0.1-1,0.3-1.5c0.1-0.7,0.1-1.4,0.2-2.1
		c0-0.7,0.1-1.4,0.3-2.1c0-0.1,0-0.2,0-0.2c0,0,0-0.1-0.1-0.1c0,0-0.1,0.1-0.1,0.1c0,0.1-0.1,0.2-0.1,0.2c-0.2,1-0.6,1.9-1,2.8
		c-0.1,0.2-0.2,0.5-0.2,0.7c-0.2,0.7-0.3,1.5-0.4,2.2c-0.1,0.8-0.1,1.5-0.1,2.3c0,1,0.1,1.9,0.1,2.9
		C204.2,133.8,204.2,134,204.2,134.2z"/>
	<path class="st0" d="M209.2,109.6c-0.1-0.1-0.2-0.1-0.3,0.1c-0.1,0.2-0.2,0.3-0.2,0.5c0,0.3-0.2,0.7-0.2,1c-0.1,1-0.3,1.9-0.5,2.9
		c-0.2,1-0.5,1.9-0.8,2.8c-0.2,0.4-0.3,0.9-0.3,1.4c0,0.2,0,0.3,0,0.5c-0.1,0.4,0,0.8,0.1,1.2c0,0.2,0.2,0.2,0.3,0
		c0.3-0.4,0.5-0.9,0.6-1.4c0.1-0.3,0.2-0.6,0.3-0.8c0.3-0.6,0.5-1.3,0.6-2c0.3-0.9,0.6-2,0.8-3.1c0.2-0.9,0.1-1.8-0.2-2.6
		C209.3,109.8,209.3,109.7,209.2,109.6z"/>
	<path class="st0" d="M205,203.6c-0.3,0.3-0.6,0.6-0.7,1.1c-0.1,0.3-0.1,0.5-0.1,0.8l-0.3,2.1c0,0.2,0,0.3,0,0.5
		c0,0.7,0.3,1.3,0.8,1.3c0.3,0,0.5-0.1,0.6-0.6l0.3-2.3l-0.1,0l0.1-1.8c0.1-0.4,0-0.7-0.3-1C205.3,203.6,205.1,203.5,205,203.6z"/>
	<path class="st0" d="M207,155.9c0,0.1,0,0.2,0,0.3c0,0.3,0.1,0.5,0.3,0.7c0.1,0.1,0.4,0,0.4-0.2c0-0.2,0-0.4,0-0.6
		c-0.1-0.7-0.1-1.3-0.1-2c0-0.2,0-0.5,0-0.8l-0.3-1.1c0-0.2-0.2-0.3-0.4-0.3c-0.2,0-0.2,0.2-0.2,0.3c-0.1,0.5-0.2,1.1-0.2,1.7
		c0,0.3,0.1,0.5,0.2,0.7C207,155,207.1,155.5,207,155.9z"/>
	<path class="st0" d="M205.7,143.7c0,0,0,0.1,0,0.1l0.2,2.6c0,0.3,0.1,0.6,0.1,0.9c0.1,0.3,0.2,0.6,0.4,0.5c0.2-0.1,0.2-0.3,0.2-0.5
		c0-0.6,0-1.3-0.2-1.9l-0.2-0.9c-0.1-0.3-0.2-0.7-0.4-0.9C205.8,143.7,205.7,143.7,205.7,143.7z"/>
	<path class="st0" d="M226.4,247l-1.6-0.6l-0.1,0c-0.5-0.2-1-0.4-1.5-0.6c-0.3-0.1-0.6-0.1-0.8-0.1c-0.3-0.1-0.6-0.1-1-0.1
		c-0.1,0-0.3,0-0.4,0.1c-0.1,0.1-0.1,0.2-0.1,0.4c0.1,0.4,0.2,0.9,0.5,0.9c0.7,0,1.4,0.1,2,0.3c0,0,0.1,0,0.1,0
		c0.5-0.1,0.8,0.1,1.1,0.2c0.3,0.1,0.6,0.2,0.9,0.3c0.3,0,0.6,0.1,0.8,0.1c0.1,0,0.2-0.1,0.3-0.3c0-0.2,0-0.3,0-0.5
		C226.6,247,226.5,247,226.4,247z"/>
	<path class="st0" d="M216,244.2c-0.3,0-0.5,0-0.8,0l0,0c-0.2,0-0.4-0.1-0.6-0.1s-0.4,0.3-0.4,0.6c0,0.2,0.1,0.5,0.3,0.6
		c0.5,0.1,1.1,0.1,1.6-0.1c0.1-0.1,0.1-0.2,0.2-0.3c0.1-0.2,0.1-0.3,0-0.5C216.2,244.3,216.1,244.2,216,244.2z"/>
	<path class="st0" d="M218.7,244.9c-0.1,0-0.3,0.2-0.3,0.4c0,0.2,0,0.3,0.1,0.5c0.1,0.2,0.3,0.3,0.5,0.3c0.1,0,0.2-0.1,0.2-0.2
		c0-0.2,0-0.3,0-0.5c-0.1-0.1-0.2-0.2-0.3-0.3L218.7,244.9z"/>
	<path class="st0" d="M236.2,256.3c-0.1-1.3-0.1-2.6-0.1-3.9c0-5.2,0-10.4,0-15.5c0-10.3-0.2-20.4-0.5-30c-0.1-2.6,0.1-5.3-0.5-7.8
		c-0.7-2.5,0-5.2-1.1-7.5c-0.2-0.7-0.3-1.5-0.2-2.2c0.1-1.7,0.1-3.3,0-5c-0.3-1.6-0.8-3.2-1.3-4.8c-0.1-0.5-0.2-1.1-0.3-1.7
		c-1.6-10.2-2-20.5-2.2-30.8c-0.2-10.4,0-20.7,0-31c-0.1-5-0.4-10.1-1-15.1c-0.6-5.1-1.2-10-1.6-15l-0.1-1.9v-0.9l-0.1-1
		c-0.1-1.3-0.5-2.7-1-3.9c-0.5-1.2-1.2-2.4-2-3.5c-0.8-1-1.7-2-2.7-2.8c-1-0.9-2-1.6-3-2.4c-0.5-0.4-1-0.7-1.5-1.1
		c-0.2-0.2-0.5-0.4-0.7-0.6c-0.2-0.2-0.4-0.4-0.7-0.6c-1.1-0.8-2.3-1.5-3.6-2c-0.9-0.4-1.9-0.7-2.8-0.9c0.2-0.3,0.4-0.7,0.5-1.1
		c0.2-0.7,0.3-1.3,0.4-2c0.2-0.7,0.2-1.4,0-2.1c-0.2-0.7-0.7-1.3-1.2-1.7c-0.2-0.2-0.4-0.8-0.6-0.9c-0.6-0.4-1.4-0.3-1.8-0.8
		c-0.6-0.7-1.4-0.8-2-1.3c-0.3-0.2-0.6-0.4-0.9-0.5c-0.2-0.1-0.7-0.1-0.9-0.3c-0.2-0.2-0.3-0.3-0.5-0.5c-0.5-0.6-1-1.2-1.4-1.9
		c-0.4-0.7-0.9-1.4-1.5-2c-0.6-0.8-1.4-1.5-2.3-2c-0.9-0.4-1.8-0.6-2.8-0.5c-0.2,0-0.3,0-0.5,0c-0.2,0-0.3,0-0.5-0.1
		c-0.3-0.1-0.6-0.3-0.7-0.5c-0.5-0.6-1-1.4-1.4-1.9c-0.3-0.4-0.7-0.7-1.2-1c-0.4-0.2-0.8-0.3-1.2-0.3c-0.3,0-0.7,0-1,0
		c-0.5,0-1,0-1.5,0s-2.2-0.3-4.1-0.5c-0.3,0-0.5,0-0.8,0c-0.2,0-0.5,0-0.7,0.1c-0.2,0.1-0.3,0.1-0.5,0.2c-0.5,0.3-0.9,0.6-1.2,1
		c-0.4,0.5-0.7,1-0.9,1.6c0,0.1-0.1,0.2-0.2,0.2c-0.6,0.4-1,1-1.1,1.7c0,0.2-0.2,0.2-0.3,0.3c-0.1,0.1-0.4,0.2-0.4,0.3
		c-0.1,0.3-0.2,0.7-0.3,1c0,0,0-0.1-0.1-0.1l-0.1-0.2c-0.2-0.3-0.4-0.7-0.6-1c-0.1-0.2-0.2-0.3-0.4-0.5l-0.2-0.2l-0.3-0.2
		c-0.8-0.6-1.7-0.9-2.6-0.9c-0.1,0-0.3-0.4-0.4,0.1c-0.1,0.5-0.3-0.4-0.3,0.5c0,0.2,0,0.2-0.1,0c-0.1-0.2-0.2-0.6-0.3-0.6
		s-0.1,0.5-0.1,0.6s-0.1,0-0.1,0c-0.8,0-1.7,0.2-2.5,0.3c-0.8,0.2-1.6,0.4-2.5,0.6c-0.1,0,0.1,0-0.3,0.1c-0.5,0.2-1,0.5-1.5,0.8
		c0,0-0.1,0.1-0.1,0.2c-0.2-0.1-0.5-0.1-0.7-0.2c-0.4-0.1-0.7-0.2-1.1-0.3c-0.5-0.1-1-0.3-1.3-0.7c-0.1,0-0.1-0.1-0.2-0.1
		c-0.3-0.1-0.6-0.2-0.9-0.3c-0.1,0-0.1,0-0.2,0c-0.3-0.1-0.7-0.1-1-0.1c-0.4-0.1-0.9-0.2-1.4-0.1c-0.3,0-0.6,0-0.9-0.1
		c-0.3-0.1-0.6,0.2-0.9-0.1c0,0-0.1,0-0.1,0c-0.2,0-0.4,0-0.6,0.1c-0.2,0-0.5,0-0.7,0c-0.2,0-0.3,0.1-0.5,0.1c-0.1,0-0.2,0-0.4,0
		l-0.5-1.7c0-0.1-0.1-0.2-0.1-0.4c-0.1-0.5-0.2-1-0.3-1.5c-0.1-0.6-0.2-1.3-0.4-1.9c0-0.2,0-0.5-0.1-0.7c-0.1-0.2-0.1-0.3-0.2-0.5
		c0,0,0-0.1,0-0.1c-0.1-0.4-0.2-0.8-0.3-1.3c-0.1-0.4-0.1-0.9,0-1.4c0-0.6,0.3-1.2,0.7-1.6c0.1,0,0.1-0.1,0.1-0.2
		c0.1-0.3,0.3-0.7,0.6-0.9c0.1-0.1,0.1-0.1,0.1-0.2c0.1-0.2,0.2-0.3,0.3-0.5l0.5-0.6c0.5-0.6,1-1.2,1.3-1.9c0.2-0.5,0.5-0.9,0.8-1.4
		c0.3-0.4,0.2-1,0.7-1.4c0,0,0-0.1,0-0.2c0.1-0.4,0.2-0.7,0.2-1.1c0.1-0.5,0.2-0.9,0.2-1.4c0-0.3-0.1-0.7-0.1-1l-0.2-1.4
		c-0.1-0.5-0.2-1.1-0.4-1.6c-0.1-0.5-0.3-1-0.6-1.5c-0.2-0.2-0.3-0.4-0.3-0.7c-0.2-0.3-0.4-0.5-0.6-0.7c-0.3-0.4-0.6-0.7-1-1
		l-1.6-1.1c-0.7-0.4-1.4-0.8-2.1-1.1c-0.2-0.1-0.3-0.1-0.5-0.2c-0.5-0.1-1.1-0.2-1.6-0.2c-0.6,0-1.2,0.1-1.8,0.2
		c-0.6,0.1-1.2,0.2-1.7,0.3c-0.4,0-0.8,0.3-1,0.7c0.2,0.4,0.6,0.4,1,0.5c0.3,0.1,0.7,0.1,0.8-0.3c0.1-0.1,0.1-0.2,0.2-0.2
		c0.2-0.2,0.4-0.2,0.6,0c0.1,0.1,0.2,0.2,0.4,0.2c0.3,0.1,0.5,0.3,0.8,0.4c0.2,0.1,0.4,0.3,0.6,0.4c0.4,0.1,0.9,0.2,1.2,0.4
		s0.7,0.2,1.1,0.3c0.6,0.3,1.2,0.7,1.7,1.2c0.2,0.2,0.4,0.4,0.6,0.6l0.3,0.4c0.3,0.3,0.5,0.6,0.6,0.9c0.1,0.2,0.2,0.4,0.4,0.6
		c0.3,0.3,0.5,0.7,0.7,1.1c0.1,0.4,0.2,0.9,0.3,1.4c0,0.2,0,0.3,0,0.5c0,0.2,0.1,0.4,0.1,0.6c0,0.2,0,0.4,0,0.7
		c-0.1,0.6-0.2,1.2-0.5,1.8c-0.2,0.4-0.3,0.6-0.5,1c-0.2,0.4-0.4,0.8-0.7,1.2c0,0.1-0.1,0.2-0.2,0.2c-0.2,0.1-0.3,0.3-0.4,0.5
		c-0.1,0.3-0.3,0.5-0.5,0.7c-0.6,0.6-1.1,1.3-1.6,1.9c-0.1,0.2-0.3,0.4-0.5,0.7c-0.2,0.2-0.3,0.5-0.4,0.7c-0.2,0.5-0.4,1.1-0.5,1.6
		c-0.1,0.4-0.2,0.9-0.2,1.3c0,0.4,0,0.7,0,1.1c0,0.5,0.1,1,0.2,1.5c0.3,0.8,0.4,1.6,0.7,2.3c0.1,0.4,0.2,0.8,0.2,1.2
		c0.2,0.6,0.4,1.2,0.5,1.9c0.1,0.4,0.3,0.9,0.6,1.2c-0.1,0-0.1,0-0.2-0.1l-0.4,0.2c-0.2,0.1-0.5,0.2-0.7,0.3c-0.3,0.2-0.7,0.3-1,0.4
		c-0.4,0.1-0.8,0.3-1.2,0.5c-0.1,0-0.2,0.1-0.3,0.1c-0.3,0.1-0.5,0.3-0.8,0.5c-0.3,0.2-0.6,0.5-0.9,0.7c-0.3,0.2-0.6,0.4-0.9,0.5
		c-0.3,0.1-0.4,0.4-0.4,0.8c0.1,0.2,0.4,0.4,0.6,0.4c0.2,0,0.4,0,0.4-0.3c0-0.1,0-0.2,0.1-0.3c0.1-0.2,0.2-0.3,0.3-0.1
		c0.1,0.1,0.2,0.1,0.3,0.1c0.2,0,0.4,0.1,0.6,0.2c0.2,0.1,0.3,0.1,0.5,0.1c0.3-0.1,0.6-0.2,0.8-0.3c0.2-0.1,0.5-0.2,0.7-0.3
		c0.4-0.2,0.9-0.3,1.3-0.4c0.2-0.1,0.3-0.1,0.5-0.2c0.1,0,0.2,0,0.3-0.1c0.2-0.1,0.4-0.1,0.7-0.1c0.1,0,0.3-0.1,0.4-0.2
		c0.5-0.3,1-0.5,1.6-0.5c0.1,0,0.2,0,0.3,0h0.4l0.4,0c0.4,0,0.8,0,1.1,0c0.2,0,0.4,0.1,0.7,0.1s0.5,0,0.8,0c0.1,0,0.1,0,0.2,0.1
		c0.1,0.1,0.2,0.1,0.3,0.1c0.2,0,0.3,0,0.5,0c0.4,0.1,0.9,0.2,1.3,0.4c0.1,0,0.3,0.1,0.4,0.2c0.1,0.1,0.3,0.2,0.4,0.2
		c0.3,0.1,0.6,0.2,0.9,0.3c0.2,0.1,0.4,0.2,0.7,0.2c0.2,0,0.4,0.1,0.6,0.2c0.3,0.1,0.5,0.2,0.8,0.3c0.4,0.1,0.9,0.3,1.3,0.5
		c0.2,0.1,0.3,0.2,0.6,0.4c0.3,0.2,0.7,0.3,1,0.5c0.3,0.2,0.6,0.2,0.9,0.1c0.4-0.1,0.7-0.2,1-0.5l0,0c0,0,0,0,0,0v0
		c0.1,0,0.1,0.1,0.2,0.2c0.3,0.5,0.4,1,0.4,1.6c0,1.4-0.3,2.8-0.8,4.2c-0.1,0.2-0.1,0.4-0.2,0.6c-1.4-0.6-2.8-1-4.3-1.3
		c-2-0.4-4.1-0.5-6.1-0.3c-1.6,0.2-3.1,0.2-4.6,0.4c-1.5,0.1-3,0.5-4.5,1c-3.2,1.3-6.7,2.3-9.6,4.5c-0.3,0.2-0.7,0.5-1,0.8
		c0-0.1,0-0.2,0-0.2c0-0.5,0-1,0-1.5c0-0.4,0-0.9,0.1-1.3c0.1-0.7,0.4-1.4,0.8-2.1c0.5-1,1.1-2,1.8-2.9c0.2-0.3,0.5-0.5,0.7-0.7
		c0.3-0.1,0.5-0.4,0.6-0.5c0,0,0,0,0,0l0.1-0.1l0.1-0.1c0,0,0-0.1,0-0.1c0,0,0,0,0,0c0,0,0,0.1,0,0.1l0,0c0,0,0-0.1,0-0.1
		c0,0,0.1-0.1,0.1-0.1c0.3-0.2,0.6-0.4,0.9-0.7c0.2-0.1,0.3-0.3,0.4-0.5c0.1-0.2,0.1-0.5,0-0.7c-0.1-0.5,0.2-0.7,0.5-0.8
		c0.1-0.1,0.2-0.1,0.3-0.1c0,0,0.1-0.1,0.1-0.2c-0.2-0.2-0.4-0.2-0.7-0.2c-0.4,0.1-0.7,0.2-1.1,0.2c-0.1,0-0.2,0-0.4,0
		c-0.1,0.2-0.3,0.4-0.4,0.6c0,0,0,0-0.1,0.1c-0.1-0.1-0.2-0.2-0.3-0.3c-0.3-0.2-0.6-0.4-0.9-0.6c-0.8-0.4-1.7-0.6-2.6-0.6
		c-1.6,0.2-3.1,1-4,2.4c-0.9,1.1-1.8,2.2-2.9,3.2l-4.5,4.6c0-0.1,0-0.2,0-0.3c0-0.4-0.1-0.7-0.3-1c-0.3-0.4-0.3-1-0.5-1.3
		c-0.2-0.3-0.4-0.8-0.6-1.1c-0.2-0.2-0.5-0.2-0.6-0.4c-0.2-0.2-0.4-0.4-0.5-0.6c-0.3-0.3-0.5-0.7-0.8-1c-0.3-0.3-1.3-1.2-1.6-1.4
		c-0.3-0.2-0.3-0.8-0.9-0.6c-0.2-0.2-0.4-0.3-0.6-0.5c-0.7-0.8-1.5-1.4-2.4-1.9c-0.3-0.1-0.4-0.5-0.7-0.7c-0.8-0.8-1.3-1.9-2.3-2.5
		c-0.1-0.1-0.3-0.3-0.3-0.5c-0.3-0.5-0.7-1.2-1-1.6s-0.1-1.1-0.9-1.3c0,0,0-0.1,0-0.1c-0.1-0.2-0.1-0.5-0.2-0.7
		c-0.2-0.4,0-0.9-0.4-1.3s-0.4-1-0.5-1.5c-0.1-0.2-0.5-0.2-0.3-0.6c0.2-0.4-0.5-0.4-0.1-0.8c0.1-0.1,0,0-0.1-0.1
		c-0.1-0.1-0.3-0.2-0.3-0.3c-0.2-0.4-0.4-0.9-0.6-1.3c-0.2-0.4-0.5-0.9-0.8-1.3c-0.3-0.4-0.7-0.7-1-1c-0.3-0.3-1.1-1.3-1.4-1.5
		c-0.8-0.9-1.8-1.6-2.8-2.3c-0.2-0.1-0.6-0.2-0.7-0.3c-0.1-0.1-0.1-0.2-0.2-0.3s0-0.5-0.4-0.4s-1.2-0.6-1.5-0.6
		c-0.1,0-0.1,0-0.1-0.2c0-0.2-0.1-0.2-0.2-0.2s-0.1,0.1-0.1,0c0-0.2-0.7-0.4-1.6-0.8c-0.9-0.4-0.9-0.6-1.1-0.6c-0.1,0-0.2,0-0.3-0.3
		C96.5,27,96.3,26.8,96,27c-0.2,0.1-0.5,0.1-0.7,0c-0.1,0-0.6-0.3-0.6-0.5c0-0.2-0.2-0.1-0.2-0.1s-0.2,0.1-0.3,0.1c0,0-0.1,0-0.1,0
		h-0.1l-0.4-0.2c-0.6-0.2-1.1-0.5-1.5-0.9c-0.1-0.1-0.1-0.1-0.2-0.1c-0.3-0.1-0.7,0-0.8,0.3c0,0,0,0,0,0.1c-0.2,0.4,0,0.8,0.4,0.9
		c0.3,0.2,0.7,0.3,1.1,0.4l1.2,0.4l2.3,1c0.4,0.1,0.8,0.3,1.2,0.4l1,0.5c0.5,0.3,1,0.5,1.3,0.7c0.3,0.2,1.3,0.6,1.6,0.9
		c0.2,0.2,0.4,0.3,0.7,0.3c0.4,0.1,0.5,0.4,0.9,0.6c0.5,0.3,0.9,0.6,1.3,1c0.3,0.3,0.6,0.6,0.9,1c0.3,0.3,1.1,1.2,1.4,1.5
		c0.2,0.2,0.4,0.3,0.6,0.5c0.2,0.2,0.4,0.4,0.5,0.7c0.2,0.4,0.5,0.8,0.6,1.1s0.4,0.7,0.6,1c0.2,0.3,0.3,0.6,0.4,0.9
		c0.1,0.4,0.1,0.9,0.2,1.3c0.1,0.4,0.2,0.8,0.4,1.1c0.1,0.4,0.3,0.8,0.4,1.2c0.1,0.4,0.3,0.7,0.5,1.1c0.5,1.1,0.7,2.4,1.9,3
		c0.6,0.3,0.6,0.8,1.2,1.3s1,1.3,1.5,1.8c0.5,0.5,1.1,0.8,1.6,1.3c1.4,1.4,2.9,2.7,4.5,3.9c0.6,0.4,1,1,1.4,1.6c0.4,0.5,0.7,1,1,1.5
		c0.2,0.4,0.3,0.9,0.4,1.4c0,0.2,0,0.3,0,0.5c0,0.1,0,0.2,0,0.2v0.1V61c-0.1,0.4-0.2,0.7-0.3,1.1c0,0.1-0.1,0.1-0.1,0.2
		c0,0-0.1-0.1-0.1-0.1c-0.1,0-0.1-0.1-0.2-0.1c-0.2-0.1-0.5-0.1-0.7-0.2c-0.4-0.2-0.8-0.5-1.2-0.7c-1-0.6-2.1-1.1-3.1-1.6
		c-0.6-0.2-1.2-0.5-1.9-0.7c-0.6-0.2-1.1-0.4-1.6-0.6c-1-0.6-2-1.3-2.8-2.1l-0.1-0.1l-0.2-0.2c-0.1-0.1-0.3-0.2-0.4-0.3
		c-0.3-0.2-0.7-0.2-1-0.2c-0.3,0.1-0.6,0.2-0.8,0.5c-0.1,0.2-0.1,0.4,0,0.6c0.3,0.3,0.6,0.7,0.9,1c0.9,1.1,2.5,2.4,3.8,2.4
		c0.6,0,1.1,0.1,1.7,0.2c0.5,0.2,1,0.5,1.3,0.9c0.6,0.7,1.5,1.2,2.5,1.2c0.5,0,1,0.3,1.3,0.7c0.2,0.5,0.7,0.6,1.1,0.7l-0.1,0.1
		c-0.1,0.1-0.2,0.2-0.3,0.3l-1.4,0.9c-2,1.2-4,2.3-6,3.3c-2.7,1.4-5.4,2.6-8.2,3.7c-2.8,1-5.8,2-8.6,3.2c-2.4,1-4.6,2.2-6.6,3.8
		c-0.8,0.7-1.6,1.4-2.3,2.1c-0.4,0.4-0.7,0.8-1.1,1.1L87,82.6c-0.2,0.2-0.3,0.5-0.5,0.7c-0.5,0.9-0.9,1.9-1.3,2.9
		c-0.4,1-0.7,1.9-1,2.9c-1.2,3.9-2.3,7.8-3.6,11.6c-0.5,1.6-0.9,3.4-1.3,5.1c-0.2,0.7-0.3,1.3-0.5,2l0.1-1c0.1-0.3,0-0.6-0.2-0.8
		c-0.1-0.1-0.3-0.2-0.5-0.2c-0.1,0-0.3,0.2-0.3,0.4c-0.1,0.7-0.2,1.3-0.2,2c-0.1,0.6,0,1.1,0,1.7c0,1.3-0.1,2.7-0.2,4
		c-0.8,3.3-1.5,6.5-2.4,10.5c-0.5,2.1-1.1,4.3-1.4,6.2c-0.3,2.1-0.7,4.1-1.2,6.2c-0.3,1-0.5,2.1-0.7,3.2c-0.1,0.5-0.2,1.1-0.2,1.6
		l-0.1,1.6c-0.1,2.8,0,5.7,0.3,8.5c0.2,2.4,0.6,4.5,0.9,6.7c0.1,0.9,0.3,1.8,0.5,2.7c0,0.2,0,0.4,0.1,0.6c0.1,0.5,0.2,1,0.3,1.5
		c0.5,2.8,1.2,6,2.1,10.1c1.1,4.4,2,8.9,2.7,13.4c0.1,1.1,0.3,2.2,0.5,3.3c0.1,0.6,0.3,1.1,0.4,1.6c0.1,0.5,0.2,1,0.4,1.5
		c0.2,0.3,0.4,0.5,0.7,0.8c0.1,0.1,0.2,0.1,0.2,0.1c0.2-0.1,0.4-0.2,0.4-0.3c0-0.2,0.1-0.5,0.1-0.7c0-0.5-0.1-1-0.2-1.5
		c-0.7-4.3-1.7-8.4-2.7-12.6c-1-4.2-1.9-8.3-2.8-12.5c-0.5-2.1-0.8-4.1-1.2-6.2c0-0.1,0-0.3,0-0.4c-0.2-1.3-0.4-2.5-0.4-3.8
		c0-0.3-0.1-0.7-0.2-1c0-0.2-0.1-0.3-0.2-0.3c-0.2-1.3-0.3-2.7-0.5-4c-0.4-4.8-0.4-9.3,0.9-13.5c2.3-8.8,4.3-17.6,6.9-29.2
		c1.3-5.7,3.3-10.8,4.6-16.1c0.4-1.4,0.7-2.9,1.2-4.2c0.3-1.3,0.9-2.6,1.7-3.7c1.9-2.2,4.2-4,6.8-5.3c2.1-1.1,4.3-2,6.5-2.8
		c1.1-0.4,2.2-0.8,3.4-1.2c1.1-0.4,2.3-0.8,3.4-1.3c4.5-1.8,8.8-3.9,13.1-5.9c0.2-0.1,0.3-0.2,0.5-0.3c0,0,0,0,0,0.1
		c0,0.7,0.1,1.4,0.3,2c0.2,0.6,0.4,1.3,0.4,1.9c0,0.3,0,0.7,0,1c0.1,0.9,0.2,1.9,0.3,2.7c0.1,0.8,0.3,1.5,0.4,2.3
		c0.1,0.8,0.3,1.5,0.5,2.3c0.1,0.4,0.3,0.8,0.3,1.2c0,0.3,0.1,0.6,0.2,0.8c0.3,0.6,0.4,1.3,0.5,2c0,0.6,0.1,1.3,0.1,1.9
		c0,0,0,0.1,0,0.1l0.2,1c0.2,0.7,0.3,1.4,0.5,2.2s0.5,1.6,0.6,2.4c0.2,1.2,0.5,2.4,0.7,3.5c0.1,0.5,0.4,0.9,0.6,1.4
		c0.3,1,0.9,1.7,1.2,2.7c0,0,0,0.1,0,0.1c0.3,0.4,0.4,0.9,0.5,1.4c0,0.2,0.1,0.5,0.2,0.7c0.1,0.4,0.3,0.9,0.4,1.1
		c0.1,0.2,0.2,0.5,0.3,0.4c0-0.2,0-0.4,0-0.4c-0.1-0.6-0.3-1.1-0.5-1.7c-0.1-0.3-0.2-0.6-0.3-0.9c-0.1-0.4-0.2-0.8-0.2-1.2
		c0-0.1,0-0.1,0-0.2c-0.2-0.6-0.3-1.1-0.2-1.7c0.2-0.7,0.1-1.4-0.2-2c-0.4-1.6-0.7-3.2-1.1-4.9c-0.1-0.4-0.1-0.8-0.2-1.1
		c-0.1-0.6-0.3-1.2-0.4-1.9c-0.2-1.1-0.6-2-0.8-3.1c-0.1-0.4-0.2-0.8-0.2-1.2c0-0.9-0.1-1.9-0.3-2.8c-0.1-0.6-0.2-1.1-0.4-1.7
		c-0.2-0.7-0.4-1.5-0.4-2.3c0-1.1-0.1-2.2-0.4-3.3c-0.1-0.3-0.2-0.6-0.3-1c-0.1-0.7-0.2-1.4-0.3-2.1c-0.2-1-0.3-1.9-0.3-2.9
		c0.1-0.1,0.2-0.1,0.3-0.2l0.3-0.2c0.4-0.3,0.5-0.8,0.5-1.2c0.1-0.1,0.2-0.1,0.4-0.2c0.6-0.5,1.1-1.1,1.6-1.7l0.2-0.3
		c1.8-2.4,5.8-5.9,7.6-8.2c0.6-0.9,1.5-1.5,2.6-1.7c0.8-0.1,1.6,0.2,2.3,0.6c-0.2,0.2-0.4,0.4-0.6,0.6c-0.2,0-0.3,0.2-0.5,0.4
		c0,0.1-0.1,0.1-0.2,0.1c-0.2,0-0.4,0.2-0.4,0.4c0,0.2-0.1,0.4-0.3,0.6c-0.2,0.1-0.2,0.5-0.2,0.7c0,0.1,0.1,0.2,0.1,0.3
		c-0.5,0.7-0.9,1.4-1.3,2.2c-0.3,0.6-0.5,1.3-0.6,2c-0.1,0.7-0.2,1.5-0.1,2.3c0.1,3,0.4,5.8,0.5,7c0,0.6,0.1,1.1,0.2,1.7
		c0.5,2.6,0.7,5,1.3,7.9c0.1,0.4,0,0.5,0.2,1.3c0.4,1.8,0.5,3.1,1,5c0.2,0.9,0.5,1.7,0.8,2.5c0.3,0.7,0.6,1.3,1,1.9
		c0.1,0.2,0.3,0.4,0.5,0.6l0.3,0.4c0.2,0.2,0.4,0.4,0.6,0.7c1.2,1.6,2.2,3.4,2.9,5.2c0.3,0.9,0.6,1.7,0.8,2.7
		c0.1,0.4,0.2,0.9,0.2,1.3v0.6l-0.1,0.7c-0.2,1.9-0.6,3.9-1,5.8c-1.4,6.3-3.4,12.6-5.3,18.8c-0.3,1-0.6,1.8-0.9,3
		c-0.3,1.1-0.6,2.2-0.9,3.4l-0.3,1.8l-0.2,0.9l-0.1,0.9c-0.1,1.2-0.3,2.4-0.4,3.6l-0.2,3.5c-0.1,2.5-0.4,5.1-0.4,7.6
		c0,3.1,0.2,6.1,0.2,9.1c0,2.2-0.2,4.5-0.3,6.8c-0.3,8.1-1,23.1-0.8,31.2c0.1,2.8-0.2,5.6-0.3,8.4c-0.1,1.7-0.2,3.8-0.4,6.1
		c-0.2,1.1-0.2,2.4-0.5,3.6c-0.2,1.2-0.4,2.4-0.8,3.7c-0.9,4.5-1.5,9-1.8,13.5c-0.2,4.7-1.2,9.3-1.6,14c-0.5,4.7-1.7,9.3-3.5,13.7
		c-0.1,0.4-0.3,0.7-0.5,1l-0.3,0.6c-1.7-0.8-3.5-1.5-5.4-2c-2-0.5-4-0.9-6-1.3c-0.9-0.2-1.9-0.4-2.8-0.7c-0.6-0.2-1.1-0.3-1.7-0.6
		c-2.3-1-4.1-2.8-5.2-5.1c0.2-0.1,0.4-0.3,0.4-0.6l-0.1-1.1c0-0.7,0-1.4,0-2.1c-0.2-5.4-0.4-10.8-0.3-16.1s0.4-10.7,0.6-16.1
		c0.2-3.8,0.3-7.6,0.6-11.4c0.3-3.8,0.7-7.6,1.1-11.4c0.4-3.5,0.7-6.9,0.8-10.3c0.2-5.4-0.2-7.1-0.5-4.8c-0.2,1.6-0.4,3-0.6,4.4
		c-0.7,7.5-1.8,15.2-1.9,22.4c-0.1,8.6-1.3,16.4-1,24.2c0.2,7.2,0.1,13.2-0.1,20c0,0.8,0,1.7,0,2.4c0,0,0,0.1,0,0.1
		c-3.7-1-7.3-2.1-9.4-2.8c-1.3-0.5-2.7-1-4-1.7c-0.7-0.3-1.3-0.6-1.9-1c-0.3-0.2-0.6-0.4-0.9-0.6c-0.2-0.1-0.4-0.3-0.6-0.6
		c-0.2-0.6-0.3-1.3-0.4-2c-0.1-0.7-0.1-1.4-0.1-2.1c0-1.5,0-2.9,0-4.4c0-2.1,0.3-4.2,0.4-6.3c0-0.6,0-1.1,0-1.7c0-1.4,0-2.8,0-4.2
		c0.1-2.7,0.3-5.3,0.4-8c0.1-3,0.2-6,0.4-9c0.2-2.8,0.6-7.2,1.2-11.7c0.3-2.2,0.6-4.4,0.8-6.5c0.2-1.8,0.3-3.5,0.2-5.3
		c-0.1-4.1,0.1-8.2,0.3-12.3c0.2-5.6,0.5-11.3,0.6-16.9c0-2.6,0-5,0.2-7.6c0.2-2.1-0.2-11.1-0.2-13.2v-5.4c0-1.8,0-3.6,0-5.3
		c0-3.2,0.8-13.3,1.1-16.5c0.2-2.3,0.2-4.7,0.2-7l0.1-0.1l0.2-1.6c0-0.7,0.1-1.4,0.1-2.1c0-1.1-0.4-1.8-1.1-1.8c-0.8,0.1-1,0.7-1,2
		v1.8c0.1,3.1,0.3,6.4,0.2,9.5c-0.1,3.1-1,13-1,16c-0.1,1.8-0.2,3.5-0.2,5.3c0,4.8,0.1,16.5,0,21.2v3.6c0,2.7,0.1,5.5,0,8.2
		c-0.2,6.2-0.7,12.3-0.6,18.5c0,3.4-0.2,6.8-0.6,10.2c-0.5,4-1,7.9-1.1,10.2c-0.1,1.4-0.4,2.8-0.4,4.2c-0.2,3.6-0.6,7.1-0.6,10.7
		c0.1,3.3-0.3,6.6-0.5,9.9c-0.2,2.7-0.3,5.5-0.4,8.3c-0.1,0-0.1,0-0.2,0c-0.1-0.1-0.2-0.1-0.2,0s-0.1,0.1-0.2,0.1
		c-0.3,0.1-0.6-0.1-0.8,0.2c0,0-0.1,0-0.1,0c-0.1-0.1-0.4-0.1-0.5,0c-0.1,0-0.1,0-0.2,0l-0.5-0.2l0,0.1c-0.1,0-0.3,0-0.4,0
		c-0.1,0-0.2,0.2-0.2,0.3c-0.1,0.3,0,0.7,0.1,1c0.1,0.1,0.2,0.2,0.3,0.3c0.1,0.1,0.2,0,0.3,0l2,0c0.1,0,0.1,0,0.2,0
		c0.2,0.2,0.3,0.2,0.5,0.1c0,1.2,0,2.5,0,3.7c0,1.2,0.1,2.3,0.2,3.5c0,0.6,0.1,1.2,0.2,1.8c0,0.1,0,0.1,0.1,0.2
		c-0.8-0.1-1.6-0.1-2.4,0c-1.3,0.1-2.6,0.2-3.9,0.1c-1-0.1-2-0.1-3,0c-0.8,0-1.6,0.1-2.3,0.1c-1.4,0-2.7,0.1-4.1,0.1
		c-0.6,0-1.2,0.1-1.8,0.2c-0.6,0.2-1.2,0.3-1.8,0.3c-1,0.1-1.9,0.3-2.9,0.5l-1.4,0.3c-0.1,0-0.3,0-0.4,0c0,0,0,0,0,0
		c-0.1,0-0.3-0.1-0.2-0.3c0-0.2,0-0.3,0-0.5c0-0.2,0.1-0.4,0.1-0.6c0.3-0.9,0.4-1.8,0.7-2.7c0.3-0.9,0.5-1.9,0.7-2.9
		c0.1-0.3,0.1-0.7,0.2-1c0.1-0.8,0.3-1.5,0.6-2.3c0.4-1,0.7-2,1-3.1c0.3-1.7,0.9-3.4,1.3-5.1c0.8-2.8,1.6-5.7,2.5-8.5
		c0.2-0.7,0.2-1.5,0.5-2.2c0.2-0.6,0.3-1.3,0.2-2c0-0.3-0.1-0.6-0.2-0.7c-0.1-0.1-0.4,0.3-0.5,0.6c-0.1,0.1-0.1,0.3-0.1,0.4
		c-0.2,0.9-0.5,1.7-0.7,2.6c0,0.3-0.1,0.6-0.2,0.9c-0.5,1.5-1,3-1.3,4.6c-0.3,1.1-0.6,2.2-1,3.3c-0.1,0.2-0.2,0.5-0.2,0.7
		c-0.4,1.5-0.9,3-1.1,4.5c0,0.1,0,0.2-0.1,0.3c-0.5,1.2-0.8,2.3-1.1,3.6c-0.3,1.2-0.6,2.5-0.9,3.8c-0.4,1.5-0.8,3-1.2,4.5l-0.2,0.8
		c-0.1,0.4-0.2,0.8-0.2,1.2c0,0.4,0.2,0.8,0.6,1c0.4,0.1,0.8,0.1,1.2,0.1c0.3,0,0.5-0.1,0.7-0.1l0.6-0.1c0.4-0.1,0.8-0.1,1.2-0.1
		c0.1,0,0.3,0,0.4,0c1.6-0.4,3.3-0.6,4.9-0.7c0.2,0,0.5-0.1,0.7-0.1c1.1-0.2,2.3-0.2,3.4-0.1c0.2,0,0.4,0,0.6,0
		c0.6-0.1,1.2-0.2,1.7-0.1c0.6,0.1,1.2,0.1,1.8,0c0.4-0.1,0.8-0.1,1.2,0c0.2,0,0.4,0,0.6,0l1.8-0.1c0.3,0,0.7,0,1-0.1
		c0.6-0.1,1.2-0.1,1.8-0.1l1.5-0.1c0.1,0.1,0.1,0.2,0.2,0.4l0.4,0.4c1,0.7,2.1,1.3,3.2,1.8c1.1,0.5,2.1,1,3.2,1.4
		c2.5,1.2,5.2,2,7.9,2.6c0.7,0.1,1.7,0.3,2.9,0.6l0.8,1.3l0.6,0.8c0.2,0.3,0.5,0.6,0.7,0.8c1,1.1,2.3,2,3.7,2.6
		c2.2,0.9,4.5,1.4,6.8,1.6c2,0.3,4,0.7,5.9,1.4c0.6,0.2,1.2,0.4,1.8,0.6c0.6,0.2,1.1,0.5,1.7,0.8l0.8-0.2c1-1.6,1.8-3.2,2.4-5
		l0.4-1.3l0.2-0.8c0.1,0.1,0.1,0.2,0.2,0.3c0.3,0.3,0.5,0.4,0.4-0.2c-0.1-0.2-0.1-0.5-0.2-0.7c0-0.1-0.1-0.1-0.1-0.2
		c0.2-0.8,0.4-1.6,0.6-2.3c1-4.5,1.5-9,2.1-13.6c0.3-3,0.6-6,1-9c0.4-3,0.5-6,1.4-8.9c0.2-0.8,0.5-2,0.9-3.4
		c0.1-0.7,0.3-1.5,0.5-2.3c0.2-0.8,0.2-1.6,0.3-2.5c0.4-3.4,0.5-6.8,0.5-9c0-1.7-0.1-4.6-0.1-6.8c0.1-3.2,0-6.3,0.1-9.5
		c0.1-2,0.3-3.9,0.3-5.9c0-3.6,0.4-14.1,0.6-17.6c0.1-2.5,0.2-4.9,0.2-7.4c0-4.1-0.1-8.3,0.1-12.4c0-1.7,0.4-3.4,0.5-5
		s0.3-3.1,0.5-4.7c0.2-1.5,0.6-3.1,1-4.6c1.1-3.9,2.4-7.7,3.4-11.6c0.5-2,0.7-4,1.3-6c1.1-3.6,2-7.4,2.6-11.1
		c0.1-0.8,0.2-1.6,0.1-2.4c-0.1-0.9-0.3-1.9-0.5-2.8c0-0.1,0-0.2-0.1-0.2c0,0,0.1,0,0.1-0.1c0-0.1,0,0,0.2-0.1
		c0.2-0.1,0.4,0.1,0.6-0.3c0-0.1-0.1-0.2,0.1,0c0.2,0.2,0.3,0.1,0.4-0.1c0,0,0,0,0,0c0,0,0.1,0,0.1,0c0.1,0.1,0.3,0.2,0.4,0.3l0-0.2
		c0.1,0,0.2,0.1,0.3,0c0.1-0.2,0.1-0.3,0.1-0.5c0-0.5-0.1-1-0.2-1.5c-0.1-0.2-0.2-0.4-0.2-0.4c-0.1-0.1-0.1,0.1-0.2,0.1l-1.4,0.1
		c-0.1,0-0.1,0-0.2-0.1c-0.3-0.5-0.5,0-0.6,0.1c0,0-0.1,0.2,0,0.4c-0.4-1.1-1-2.2-1.6-3.2c-0.5-0.9-1.2-1.7-1.9-2.5
		c-0.6-0.7-1.1-1.5-1.4-2.4c-0.5-1.4-1-2.8-1.3-4.3c-0.6-2.9-1.5-7.6-2.1-12.3c-0.2-1.5-0.4-3-0.5-4.5c0.3,0,0.6-0.1,0.8-0.3
		c0.3-0.2,0.6-0.5,0.9-0.6c2.5-1.7,5.9-3.4,8.5-4.8c1.1-0.6,2.3-1,3.5-1.3c1.2-0.3,2.5-0.4,3.7-0.5c3-0.3,6.1,0,9,0.8
		c0.3,0.1,1.8,0.5,3,0.9c-0.3,0.9-0.6,1.8-0.8,2.7c-1,3.2-2,6.5-3.2,9.8c-0.6,1.7-1.2,3.4-2,5c-0.3,0.8-0.7,1.5-1.2,2.2l-0.4,0.6
		l-0.3,0.4l-0.2,0.4c-0.2,0.5-0.5,0.9-0.6,1.4c-0.7,1.8-1.2,3.7-1.6,5.6c-0.4,1.9-0.7,3.8-0.9,5.7c0,0.1,0,0.1,0,0.2l-0.5,0.1
		c-0.1,0-0.1,0.2-0.1,0.4c0.1,0.2,0.1,0.5,0.1,0.8c0,0.1,0.1,0.3,0.1,0.4c0.1,0.1,0.2,0.1,0.3,0.1c-0.1,1.3-0.1,2.6-0.1,3.9
		c0,2,0.4,3.9,1.1,5.8c0.8,1.7,1.8,3.3,2.9,4.8c0.9,1.4,1.5,2.9,1.8,4.5c0.5,3.2,0.5,6.5,0.1,9.7c-0.3,3.1-0.8,6.1-1.1,8.9
		c-2.2,15.3-5.5,29.9-7.2,43.4c-2.3,17.7-5.8,31.8-8.2,47.9c-0.3,2.5-0.7,5.1-1,7.7c-0.1,1.3-0.3,2.6-0.4,3.9
		c-0.1,1.3-0.2,2.7-0.2,4c-0.1,5.2-0.3,10.2-0.3,14.6c0,0.5,0,1,0,1.5c-0.4-0.4-0.9-0.7-1.4-1c-0.1,0-0.2,0-0.2,0
		c-0.3,0.1-0.6,0.3-0.8,0.2c-0.5-0.2-1-0.3-1.5-0.2c-0.3,0.1-0.4-0.3-0.8,0c0,0.1-0.1,0.1-0.1,0c-0.3-0.6-0.9,0.3-1.3,0.1
		c-0.1,0.2-0.1,0.4-0.2,0.6c0,0.2,0,0.5,0,0.7c0.1,0.2,0.2,0.5,0.3,0.4c0.4-0.4,0.8-0.6,1.1-0.2c0,0,0.1,0,0.1,0
		c0.3-0.4,0.6,0,0.7,0s0.2,0.1,0.4,0c0.4-0.3,0.5,0,0.8,0.1c0.1,0.1,0.3,0.1,0.4,0c0.1,0,0.3-0.1,0.4-0.1c0.5,0,0.7,0.9,1.3,0.7
		c0,0,0,0.1,0,0.1l0.3,0.3v-0.1c0.1,0.1,0.3,0.3,0.4,0.4c0,0,0.1-0.1,0.1-0.1c0,0.7,0,1.5,0,2.2v2.8v1.6c0,0.1,0,0.3,0,0.4
		c0.2,0.5,0.6,0.9,1.2,0.9c0.1,0,0.3,0,0.4,0c0.1,0,0.2-0.1,0.3-0.1c3.4-1.6,6.8-2.9,10.3-4.1c3.5-1.2,7.1-2.2,10.8-3
		c1.8-0.4,3.7-0.8,5.5-1.1c1.9-0.3,3.7-0.5,5.6-0.9c3.8-0.7,7.4-2.3,10.5-4.6c3.1-2.4,5.4-5.7,6.5-9.4l0.2-0.7c0-0.1,0-0.1,0.1-0.1
		h0.1l0.1,0.1l0.5,0.5l2,2.1l2,2.1l0.5,0.5c0.1,0.1,0.2,0.2,0.3,0.3c0.1,0.1,0.3,0.1,0.4,0.1c0,0.1,0,0.2,0,0.3v1
		c-0.1,4.5-0.2,9-0.4,14.2l0.8,0.8l8.1-0.3c2.8-0.1,5.5,0.1,8.2,0.5c5.7,0.9,11.2,2.4,16.5,4.7l1.2-0.4c0.6-1.3,1-2.6,1.2-3.9
		c0.3-1.3,0.5-2.7,0.6-4C236.2,259,236.2,257.6,236.2,256.3z M177.3,50.5c0.6-1.2,1.2-2.4,1.6-2.9c0.3-0.5,0.6-1,1-1.4
		c0.3-0.4,0.6-0.8,1-1.2c0.1-0.1,0.2-0.2,0.3-0.3c0.1-0.1,0.1-0.1,0.2-0.2h0.1c0.3,0,0.7,0,1,0l1.3,0.2c1.4,0.2,2.8,0.3,4.2,0.2h0.3
		h0.2c0.1,0,0.2,0,0.4,0.1c0.2,0.1,0.4,0.3,0.6,0.4c0.4,0.4,0.7,1,1.3,1.8c0.2,0.2,0.4,0.4,0.7,0.6c0.4,0.3,0.9,0.5,1.4,0.6h0.2h0.4
		h0.5c0.3,0,0.5,0,0.7,0c0.8,0,1.5,0.3,2.1,0.7c0.5,0.3,0.9,0.8,1.7,1.5c0.8,0.7,0.8,1.9,1.6,3c0.9,0.9,1.9,1.7,3.1,2.3
		c1,0.6,2.1,1.1,2.9,1.6c0.6,0.3,1.2,0.7,1.6,1.1c0.1,0.1,0.3,0.3,0.3,0.5c0.1,0.2,0.1,0.4,0.1,0.7c0,0.5-0.1,1.1-0.2,1.6
		c-0.1,0.2,0.2,0.6,0.1,0.9c-0.2,0.4-0.5,0.8-0.9,1.1c-0.1,0.1-0.2,0.1-0.3,0.1c0,0,0,0-0.1,0h-0.1c0,0,0,0-0.1-0.1
		c-0.9-0.5-2-0.9-3-1.2c-1.1-0.3-2.2-0.4-3.3-0.2c-1.1,0.1-2.1,0.4-3.1,0.9c-0.9,0.4-1.8,0.9-2.6,1.5c-0.7,0.5-1.5,1-2.3,1.4
		c-0.4,0.1-0.7,0.5-1,0.5c-0.2,0-0.4-0.1-0.5-0.2c-0.2-0.1-0.4-0.4-0.4-0.4c0-0.1,0-0.1,0-0.2c0-0.6,0.2-1.3,0.5-1.8
		c0.3-0.8,0.7-1.6,1.2-2.3c0.6-0.6,1.2-1.2,1.9-1.8l-0.1-0.1c0.3-0.3,0.7-0.6,1-0.8c0.2-0.1,0.3-0.2,0.5-0.4l0.9-0.6
		c0.7-0.4,1.4-0.8,2.2-1c0.5-0.2,0.9-0.6,1-1.2c0-0.4-0.1-0.7-0.3-1c-0.3-0.3-0.6-0.4-1-0.4c-1.2,0.2-2.4,0.6-3.4,1.3
		c-0.5,0.3-0.4,0.3-0.4,0.3l-0.1,0.1l-0.2,0.3c-0.1,0.2-0.2,0.4-0.4,0.5c-0.9,0.7-1.7,1.5-2.4,2.4c-0.4,0.5-0.5,1.1-0.9,1.5
		c-0.3,0.4-0.6,0.8-0.9,1.2c-0.3,0.4-0.5,0.9-0.7,1.4c-0.1,0.3-0.2,0.7-0.3,1l-0.1,0.1l-0.1,0.2h-0.1l-0.1,0.1l-0.8,0.9
		c-0.3,0.3-0.7,0.5-0.8,0.9c-0.4,0.4-1,0.5-1.5,0.2c-0.4-0.4-0.7-1-0.8-1.5l-0.2-0.5c0-0.1,0-0.2,0-0.3c0-0.3,0.1-0.5,0.2-0.7
		c0.2-0.5,0.3-1.1,0.5-1.6c0.3-1.1,0.7-2.1,1.3-3.1c0.1-0.2,0.8-1.1,0.6-1.6c0.2-0.4,0.7-2.2,1.2-2.2c0.5,0,1.3-0.9,2-1.9
		c0.7-1,1.5-2,1.8-2.5l0.4-0.4c0.1-0.2,0.2-0.4,0.2-0.6c0-0.2,0-0.6-0.2-0.7c-0.3-0.2-0.6-0.2-0.9-0.2c-0.2,0.1-0.4,0.2-0.6,0.3
		c-0.2,0.1-0.3,0.2-0.4,0.3c-0.4,0.5-2.9,3.1-3.2,4.3c-0.1,0.2-1.2,1.8-1.2,2c-0.6,0.9-1.1,1.9-1.4,2.9c-0.1,0.4-0.2,0.8-0.3,1.2
		c-0.1,0.4-0.2,0.8-0.3,1.3c-0.1,0.4-0.2,0.9-0.4,1.5c-0.1,0-0.2,0-0.3,0.1c-0.3,0.2-0.6,0.4-1,0.5c-0.7,0.2-1.4,0-1.9-0.4l-0.1-0.1
		c0-0.1-0.1-0.2-0.1-0.3c-0.1-0.4-0.1-0.8-0.2-1.2c-0.3-1.6,0.1-3.2,1.1-4.4c0.9-1.1,1.5-2.5,1.6-4c0-0.8,0.4-1.5,1-2
		c0.9-0.6,1-1.5,1.1-2.3c0.1-0.2,0.1-0.4,0.2-0.7c0.2-0.4,0-0.8-0.4-1c-0.4-0.3-1,0-1.4,0.4c-0.1,0.1-0.2,0.2-0.3,0.4
		c-0.1,0.4-0.3,0.7-0.4,1c-0.3,0.7-0.8,1.2-1.1,1.9c-0.8,1.6-1.5,3.2-2.1,4.9c-0.6,1.5-1,3.1-1.3,4.6c-0.1,0-0.1,0-0.2,0
		c-0.7,0.3-1.5,0.5-1.8,0.3c0,0-0.1-0.1-0.1-0.1c-0.1,0-0.1-0.1-0.1-0.1l0,0c0-0.1-0.1-0.1-0.1-0.2c0-0.1-0.1-0.1-0.1-0.2
		c0-0.1,0-0.2,0-0.3c0-0.5,0-0.9,0.1-1.4c0.1-1,0.3-2,0.7-2.9c0.3-0.4,0.1-1,0.2-1.5C176.2,53.1,176.7,51.7,177.3,50.5z M179.8,62.8
		c0,0,0-0.1,0-0.1C179.8,62.7,179.8,62.8,179.8,62.8z M179.7,62.6C179.7,62.6,179.7,62.6,179.7,62.6
		C179.7,62.6,179.7,62.6,179.7,62.6z M234.2,262c-0.2,1.6-0.6,3.2-1.2,4.7c-5.2-2.1-10.6-3.6-16.1-4.4c-2.8-0.4-5.7-0.6-8.6-0.6
		l-7.1,0.3c0.1-4.9,0.3-9.2,0.4-13.4v-0.8c0-0.5,0-1,0-1.5c0-0.2-0.1-0.4-0.2-0.6c0.4,0,0.9,0,1.3-0.2c0.3-0.1,0.5-0.1,0.8-0.2
		c1.2-0.1,2.5-0.1,3.8-0.1h2.3v0.1h0.2c0.8,0,1.6,0,2.4,0.1c0.1,0,0.1,0,0.2,0c0.2,0,0.3-0.5,0.2-0.7c0-0.1-0.1-0.3-0.2-0.3
		c-0.2-0.1-0.3-0.1-0.5-0.1c-0.6-0.1-1.3-0.1-1.9-0.1c-0.2,0-0.5,0-0.7-0.1c-0.4-0.2-0.9-0.2-1.3-0.1c-0.8,0-1.5-0.1-2.3-0.2
		c-0.3,0-0.6,0-0.9-0.2c-0.5-0.2-1.1-0.2-1.6-0.1c-0.6,0.1-1.2,0.3-1.8,0.3l1.1-9.2c0.6-5.3,1.2-10.5,1.9-16.3
		c0.2-2,0.4-3.9,0.6-5.5c-0.1-0.4-0.3-0.6-0.5-0.5c-0.2,0.1-0.4,0.1-0.5,0.3l0,0.1v0l0,0.4c-0.1,1-0.3,1.9-0.4,2.9
		c-0.3,2-0.6,3.9-0.8,6c-0.5,4-1.1,8.1-1.6,12.2l-0.9,7.1l-0.4,3.6l-0.1,0.6l-2.3-2.4l-1.2-1.3l-0.6-0.6l-0.2-0.2l-0.1-0.1
		c-0.1-0.1-0.1-0.1-0.2-0.2c-0.2-0.1-0.4-0.2-0.6-0.3c0,0,0-0.1-0.1-0.1c-0.2-0.2-0.1-0.5-0.1-0.7c0-0.3-0.1-0.5-0.1-0.8l-1-3.8l0,0
		c0-0.2-0.1-0.5-0.1-0.7l-0.6-3c0,0,0.1-0.2,0-0.2c-0.1-0.1-0.3-0.1-0.4-0.1c-0.2,0-0.3,0.1-0.4,0.2c-0.1,0.2-0.2,0.3-0.2,0.5
		c0,0.8,0.1,1.5,0.3,2.3c0.3,0.6,0.4,1.3,0.4,2c0,0.3,0.1,0.6,0.2,0.8c0.1,0.2,0.1,0.4,0.1,0.6c0,0.5,0,1-0.1,1.5
		c-0.1,0.7,0.4,1.1,0.6,1.7c0,0,0,0.1,0.1,0.1c-0.1,0.1-0.2,0.1-0.2,0.2c-0.1,0.2-0.2,0.3-0.3,0.6l-0.1,0.3
		c-0.1,0.3-0.1,0.5-0.2,0.8c-0.2,0.5-0.4,1.1-0.6,1.6c-0.5,1.1-1,2.1-1.7,3c-1.3,1.9-3,3.5-4.9,4.7c-1.9,1.3-4,2.2-6.2,2.8l-1.7,0.4
		c-0.6,0.1-1.2,0.2-1.7,0.3c-1.1,0.2-2.4,0.4-3.6,0.5c-2.4,0.4-4.8,0.8-7.1,1.4c-4.5,1-9,2.4-13.4,3.9c0.1-0.5,0.1-0.9,0.1-1.4
		c-0.1-0.9,0-1.8,0.1-2.6c0-0.2,0-0.4,0-0.6l0.1-4l0,0c0-0.7,0-1.2,0-2c0-0.7-0.1-1.5-0.1-2.2c0-0.1-0.1-0.3-0.2-0.3
		c-0.1,0-0.2,0.1-0.2,0.2c-0.1,0.5-0.3,1-0.4,1.5c-0.1,1-0.2,2-0.1,2.9c0.1,1.8,0.1,3.7-0.1,5.5c-0.1,1.1-0.1,2.2,0,3.2
		c-2.1,0.8-4.3,1.6-6.3,2.6v0v-1.8l0.1-3.6c0.1-4.8,0.3-9.6,0.4-14.5c0.1-2.4,0.1-4.8,0.3-7.2l0.1-1.8l0.2-1.8l0.4-3.6
		c0.9-6.1,1.9-13.7,2.6-19.5c1.8-14.5,4.7-29.5,7.2-44.3l3.3-19.3c1.2-6.9,2.5-14.1,3.5-21.4c0.6-3.7,0.7-7.4,0.3-11.1
		c0,0,0-0.1,0-0.1c0.2,0.2,0.4,0.5,0.6,0.7c1.4,1.6,2.7,3,4,4.4c0.2,0.2,0.4,0.2,0.4,0c0.1-0.3,0.1-0.6,0-0.9
		c-0.2-0.5-0.4-1-0.7-1.5c-1-1.8-2.3-3.3-3.4-5c0-0.1-0.1-0.2-0.2-0.2c-0.7-0.7-1.2-1.1-1.8-1.1c-0.1-0.3-0.3-0.7-0.5-1
		c0.3-0.1,0.5-0.2,0.6-0.5c0.1-0.4,0.2-0.7,0.2-1.1c0-0.3,0-0.6,0.1-1.3c0.1-0.7-0.2-2.3-0.1-2.9c0,0,0,0,0-0.1c0-0.4,0-0.8,0.1-1.1
		c0-0.6,0.2-1,0.2-1.7c0-0.4,0-0.8,0.1-1.2v-0.5c0.1-0.7,0.4-1.3,0.5-2c0.1-0.5,0.2-1,0.3-1.5c0.1-0.7,0.3-1.4,0.4-2.1
		c0-0.3-0.1-0.6,0-0.9c0.3-1.4,0.4-1.7,0.8-3c0.2-0.8,0.6-2.4,0.8-3.2c0-0.3,0.1-0.5,0.3-0.8c0,0,0,0,0-0.1c0.2-0.3,0.1-0.8,0.5-1
		c0.1,0,0-0.1,0-0.2c0-0.2,0-0.4,0-0.6c0.3-0.6,0.6-1.2,1-1.7c0.3-0.4,0.7-0.8,1.1-1h0.1c0,0,0-0.1,0-0.1c0,0,0,0,0,0
		c0.1-0.1,0.2,0.1,0.2,0.1c0.1,0.1,0.2,0.2,0.2,0.3c0.2,0.3,0.8,0.1,0.9,0.6c0,0.1,0.1,0,0.1,0c0.2,0,0.3,0.1,0.5,0.2
		c0.2,0.2,1.6,0.8,2.9,1.6c1,0.5,1.9,1.2,2.8,1.9c1.1,1.1,2.7,2.9,3.8,4.2c0,0.3,0,0.5,0,0.8l0.5-0.2l0.3,0.3
		c0.2-0.1,0.7-0.3,0.6-0.3v-0.1v-0.2l0-0.1l0.5-0.2c-0.2-0.2-0.4-0.4-0.6-0.6c-0.1-0.5-0.1-1-0.1-1.1c0-0.5,0-0.9,0-1.4
		c0-0.4-0.3-1.1-0.4-1.6s-0.1-2.5-0.2-3.2c0-0.7-0.1-1.3-0.2-1.9c-0.1-0.8-0.3-1.6-0.4-2.4c0-0.4,0.1-0.9,0-1.3
		c0-0.4-0.2-0.9-0.3-1.4c0-0.2-0.1-0.4,0-0.6l-0.2-3c0-0.7-0.1-1.3-0.1-2c0-0.3-0.9-0.5-0.4-0.9c0.2-0.2,0.2-0.4,0.1-0.6l-0.1-0.3
		c0,0.1-0.1-0.4-0.1-0.7c0-0.3-0.1-0.6-0.1-0.9c0-0.6-0.3-1.2-0.8-1.4c-0.4,0-0.7,0.1-1,0.4c-0.3,0.3-0.4,0.8-0.3,1.3
		c0.1,0.5,0.2,1.1,0.3,1.5c0,0.1,0,0.2,0,0.2c0,0.1,0.5,0.5,0.4,0.6c-0.1,0.4,0.3,0.9,0.4,1.3c0.1,0.5,0.1,1.9,0.2,2.1
		c0,0.1,0.2,0.3,0.2,0.4c0,0.4,0.1,1.5,0.1,2.3c0.1,0.3,0.1,0.6,0.2,0.9c0.1,0.3,0.2,0.7,0.1,1c0,0.2,0,0.5,0,0.7l0.4,5
		c0.1,1,0.3,3,0.4,4c0,0.4,0.3,0.7,0.3,1.1c0,0,0,0.1,0,0.1c0,0,0,0-0.1-0.1c-0.4-0.4-0.6-1-1.3-1.1c-0.1,0,0-0.1-0.1-0.2
		c-0.1-0.1,0-0.2-0.1-0.3c-0.3-0.3-0.6-0.6-0.8-1c-0.9-0.6-1.8-1.1-2.7-1.5c-1.3-0.7-2.5-1.3-2.5-1.7c0-0.1-0.2,0-0.3-0.1
		c-0.1-0.1-0.3,0-0.3-0.1c-0.2-0.2-0.4-0.4-0.7-0.5c-0.4-0.2-0.7-0.5-1-0.8c-0.3-0.3-0.7-0.5-1.1-0.5c-0.1,0-0.1-0.1-0.1-0.1
		c-0.1,0-0.2-0.1-0.3-0.1c-0.1,0-0.2,0-0.4,0c-0.2,0.1-0.4,0.2-0.6,0.3c-0.2,0.1-0.3,0.2-0.5,0.4c-0.2,0.1-0.3,0.3-0.5,0.4
		c-0.2,0.2-0.4,0.5-0.6,0.8c-0.2,0.3-0.5,0.5-0.7,0.7c-0.1,0.1,0,0.2,0,0.2s0,0.3-0.1,0.4c-0.1,0.3-0.3,0.7-0.3,1s-0.2,0.8-0.2,1.2
		c0,0.2-0.2,0.4-0.2,0.5c-0.3,0.9-0.5,2.8-0.7,3.7c0,0.2-0.2,0.4-0.2,0.6c-0.1,0.4-0.1,0.8-0.2,1.1c-0.4,1.7-0.8,2.4-0.8,4.2
		c-0.1,0.7-0.2,1.3-0.3,2c-0.1,0.5,0,0.3-0.2,1l-0.2,1.3c-0.2,1.1-0.2,1.1-0.4,2.2c0,0.3,0.1,0.6,0,0.8c-0.1,0.3-0.2,0.5-0.3,0.8
		c-0.2,0.4,0.3,2-0.2,2.3c-0.1,0,0,0.1,0,0.1c0.1,0.1,0.2,0.3,0.1,0.5l-0.1,0.2c-0.1,0.4-0.1,0.9-0.1,1.3c-0.7-1-1.3-2.1-1.9-3.2
		c-0.6-1.5-0.9-3.2-1-4.8c-0.1-1.6-0.1-3.3,0-4.9c0.2-3.1,0.7-6.1,1.4-9.1c0.3-1.4,0.8-2.8,1.5-4.2c0.2-0.3,0.4-0.6,0.6-0.9l0.4-0.5
		l0.3-0.5c0.4-0.7,0.8-1.5,1.2-2.2c1.4-3,2.6-6.1,3.6-9.3c0.9-2.8,1.8-5.6,2.7-8.4c0.5-1.4,0.9-2.9,1.1-4.3c0.1-0.8,0.2-1.6,0.1-2.4
		c-0.1-1-0.4-1.9-1.1-2.6c-0.6-0.5-0.4-0.3-0.5-0.4l-0.1-0.1l-0.2-0.1c-0.1-0.1-0.3-0.1-0.4-0.1c-0.3,0-0.6,0.1-0.8,0.2l-0.3-0.1
		c-0.1,0-0.1-0.1-0.2-0.1c-0.3-0.1-0.4-0.3-0.8-0.4l0.3-0.1c0.2-0.1,0.1-0.1,0.1-0.1C166,49,166,49,166,49c0.3-0.2,0.7-0.2,1-0.4
		c0.1,0,0.1,0,0.1-0.2s-0.2-1,0-0.3c0.3,0.7,0-0.5,0.1-0.1c0.4,0.8,0.4,0.4,0.5,0.4c0.2,0,0.3,0,0.5-0.1c0.1,0,0.2-0.3,0.4,0
		c0.2,0.3,0-1.1,0.4-0.2c0-0.1,0-0.2,0-0.3c0-0.1,0-0.2,0.1-0.1c0.2,0.5,0.2,0.4,0.3,0.4l1.5-0.1c0.2,0,0.3,0.4,0.4-0.6
		c0-0.1,0.1,0,0.1,0c0.2,0,0.4,0,0.6,0c0.5,0.1,0.9,0.3,1.2,0.7c0.3,0.4,0.6,0.9,0.9,1.4l0.2,0.3c0.2,0.3,0.3,0.5,0.4,0.8
		c0.1,0.2,0.2,0.3,0.3,0.4c-0.4,1-0.9,2.1-1.1,2.3c-0.3,0.2-0.6,0.5-0.6,0.8c-0.1,0.3,0.1,0.7,0,1c-0.3,0.9-1.2,3-1.1,4.3
		c0,0.1,0,0.3,0.1,0.4c0,0.2,0.1,0.4,0.2,0.6c0.1,0.3,0.3,0.5,0.5,0.8c0.1,0.1,0.1,0.3,0.2,0.4l0.1,0.2c0.1,0.1,0.2,0.2,0.2,0.3
		c0.1,0.1,0.3,0.2,0.4,0.3c0.3,0.2,0.6,0.3,0.9,0.4c0.8,0.2,1.6,0.1,2.3-0.2c0,0.1,0,0.2,0,0.3c0.1,0.5,0.3,0.9,0.6,1.3l0.2,0.2
		l0.1,0.1l0.2,0.1c0.1,0.1,0.2,0.2,0.4,0.3c0.5,0.3,1.2,0.5,1.8,0.6c0.6,0.1,1.2,0,1.8-0.1c0.1,0,0.2-0.1,0.3-0.1
		c0.1,0,0.2-0.1,0.3-0.1c0.2,0.6,0.4,1.1,0.8,1.6c0.4,0.6,1.1,1,1.9,1c0.7,0,1.3-0.3,1.8-0.6c0.4-0.3,0.7-0.6,1.1-0.9
		c0,0.1,0.1,0.2,0.1,0.2c0.1,0.2,0.2,0.4,0.4,0.5c0.1,0.1,0.3,0.2,0.4,0.3c0.2,0.2,0.5,0.3,0.8,0.4c0.4,0.2,0.9,0.4,1.4,0.4
		c0.4,0,0.8-0.1,1.1-0.2c0.8-0.3,1.5-0.6,2.1-1.1c0.5-0.3,0.8-0.9,1.3-1.2c0.8-0.4,1.6-0.7,2.5-1c0.2-0.1,0.4-0.2,0.6-0.4
		c0.2-0.1,0.4-0.2,0.6-0.3c0.5-0.1,1.1-0.1,1.6-0.1c0.6,0,1.3,0.2,1.9,0.3c0.2,0.1,0.3,0.1,0.5,0.2c0.1,0.4,0.2,0.7,0.5,0.9
		c0.2,0.1,0.5,0.2,0.7,0.2l1.1,0.1c1.3,0.1,2.6,0.3,3.8,0.7c1.1,0.3,2.1,0.7,3.1,1.2c0.5,0.2,0.9,0.5,1.4,0.8
		c0.4,0.3,0.8,0.7,1.3,1.1c1.9,1.5,3.8,2.7,5.4,4.2c1.6,1.5,2.9,3.3,3.8,5.3c0.4,1,0.6,2.1,0.8,3.1c0.1,1,0.1,2.3,0.2,3.4
		c0.1,1.5,0.3,3,0.6,4.5c0.3,1.2,1.2,2.4,0.7,3.7c-0.6,1.6,0.8,2.9,0.6,4.2c-0.6,2.8,0.1,5.5,0.3,8.3c0.2,3.9,0.4,7.8,0.4,11.8
		c0,3.7,0.2,7.5-0.1,11.2c-0.3,3.9,1.1,7.7,0.1,11.6c-0.1,0.4,0.2,1,0.3,1.6c0.2,0.7,0.2,1.4,0.1,2.1c-0.4,1.8-0.5,3.7-0.3,5.6
		c0.1,6.8,0.5,13.5,1.1,20.3c0.2,1.7,0.4,3.4,0.6,5.1l0.8,5c0.5,3.3,1,6.7,1.3,10c0.2,2.2,0.3,4.5,0.5,6.7c0.1,2.2,0.5,4.4,1.1,6.6
		c0.1,0.7,0.2,1.5,0.2,2.2c0.2,5.6,0.4,11.2,0.5,16.9c0.1,7,0.1,14.4,0.1,21.9c0,3.8-0.1,7.6,0,11.5
		C234.5,258.2,234.4,260.1,234.2,262z M167.7,80.6C167.6,80.5,167.7,80.5,167.7,80.6C167.7,80.6,167.7,80.6,167.7,80.6z"/>
	<path class="st0" d="M169.1,48.1C169.1,48.1,169.1,48.1,169.1,48.1C169.1,48.1,169.1,48.1,169.1,48.1z"/>
	<path class="st0" d="M180.1,90.9L180.1,90.9C180,90.9,179.9,91,180.1,90.9z"/>
	<path class="st0" d="M131.7,98.7l-0.3,1.1c0,0.2-0.1,0.4-0.1,0.6c0,0.2,0,0.5,0.1,0.7c0.1-0.1,0.1-0.2,0.2-0.2
		c0.4-0.5,0.6-1,0.6-1.6c0.1-0.5,0.2-0.9,0.1-1.4c0-0.1,0-0.2,0-0.2c0.1-0.4,0.3-0.8,0.5-1.1c0.4-0.6,0.7-1.2,0.8-1.9v-0.9
		c0-0.6,0.2-1.3,0.5-1.8c0.3-0.4,0.5-0.8,0.7-1.2c0.2-0.5,0.4-1.1,0.6-1.7c0.1-0.3,0.2-0.6,0.3-0.9c0.2-0.4,0.4-0.7,0.7-1
		c0.2-0.2,0.4-0.3,0.5-0.4c0.2-0.1,0.5-0.2,0.5-0.3c-0.6-0.1-1.1,0.1-1.6,0.4c-0.3,0.2-0.6,0.5-0.8,0.8c-0.2,0.3-0.4,0.6-0.6,0.9
		c-0.2,0.6-0.4,1.1-0.6,1.6c-0.3,0.6-0.5,1.3-0.7,2c-0.2,0.9-0.5,1.8-0.9,2.6c-0.1,0.3-0.2,0.6-0.1,0.9c0.1,0.4,0.1,0.9,0,1.3
		C132,97.6,131.8,98.2,131.7,98.7z"/>
	<path class="st0" d="M141.1,54.1L141.1,54.1C141,54.3,141.1,54.2,141.1,54.1z"/>
	<path class="st0" d="M72.4,192.9c0,0.9-0.1,1.9-0.4,2.8c-0.1,0.4-0.2,0.9-0.3,1.4c0,0.4,0,0.9-0.1,1.4c-0.1,1-0.2,2.1-0.4,3.1
		c-0.1,0.3-0.1,0.6-0.1,0.9c0,0.2,0.1,0.4,0.2,0.5c0.1,0.1,0.3,0,0.4-0.2c0.4-0.8,0.7-1.6,0.9-2.4c0.3-1.6,0.6-3.1,0.8-4.7
		c0.1-0.5,0.1-1,0.1-1.5c0-0.5,0.1-1.1,0.3-1.6c0.1-0.4,0.2-0.9,0.3-1.3c0.2-0.7,0.1-1.5-0.2-2.2c-0.2-0.4-0.5-0.3-0.7,0
		c-0.3,0.5-0.5,1-0.5,1.5C72.6,191.2,72.5,192,72.4,192.9z"/>
	<path class="st0" d="M74.1,167.4c-0.1-0.2-0.2-0.4-0.3-0.5c-0.2-0.3-0.5-0.2-0.6,0.2c-0.2,1.2-0.4,2.4-0.3,3.6
		c0,1.2,0.2,2.3,0.4,3.5c0,0.3,0.1,0.6,0.2,0.8c0.1,0.3,0.3,0.3,0.4,0.1c0.2-0.3,0.2-0.6,0.3-0.9c0-0.8,0.2-1.6,0.4-2.4
		c0-0.2,0-0.4,0-0.6c0-0.6,0-1.3,0-1.9c0.1-0.5,0-1-0.3-1.4C74.2,167.8,74.2,167.6,74.1,167.4z"/>
	<path class="st0" d="M70.9,210.3c0.1-0.2,0.1-0.4,0.1-0.6c0.2-0.5,0.1-1-0.2-1.4c-0.2-0.2-0.4-0.4-0.6-0.5c-0.1,0-0.3,0-0.3,0.1
		c-0.2,0.3-0.5,0.6-0.7,0.9c-0.1,0.2-0.2,0.4-0.3,0.7c-0.1,0.4-0.1,0.8,0,1.2c0.1,0.3,0.2,0.6,0.5,0.8c0.1,0.1,0.2,0.1,0.2,0.1
		c0.4-0.3,0.7-0.6,1.1-0.9C70.8,210.6,70.9,210.5,70.9,210.3z"/>
	<path class="st0" d="M73.2,183.6c0,0.3,0.1,0.5,0.2,0.8c0,0.2,0.2,0.2,0.3,0.1c0.1-0.2,0.2-0.5,0.3-0.7c0.1-0.6,0.3-1.3,0.3-2
		c0.1-0.6,0.1-1.2,0.1-1.8c0-0.4-0.1-0.8-0.4-1.1c-0.1-0.1-0.2-0.2-0.3,0.1c-0.1,0.4-0.2,0.8-0.3,1.2c0.1,0.8-0.2,1.7-0.1,2.3
		C73.2,183,73.2,183.3,73.2,183.6z"/>
	<path class="st0" d="M134.8,254.1c-0.2,0.2-0.5,0.3-0.8,0.2c-0.2-0.1-0.2,0-0.5,0.1c-0.3,0.1-0.6,0.3-0.8,0.4
		c-0.2,0.1-0.4,0.1-0.6,0.1l-0.7,0.3l-0.1-0.2c-0.4,0.1-0.7,0.2-1.1,0.3c-0.2,0.1-0.3,0.2-0.4,0.3c0,0.2,0,0.5,0.2,0.7
		c0.1,0.2,0.2,0.4,0.3,0.5c0.1,0.1,0.1,0,0.1,0c0.2-0.1,0.4-0.2,0.6-0.2c0.3-0.1,0.7-0.1,1-0.1c0.1,0,0-0.1,0.2-0.2s0.4-0.4,0.6-0.2
		s0.4,0.1,0.5,0s0.3,0,0.6-0.2s0.5,0.2,0.8-0.2s0.4-0.4,0.6-0.2c0,0,0.1,0.1,0.1,0c0-0.1,0.1-0.3,0.1-0.5c0-0.2,0-0.4,0-0.6
		c0-0.1-0.1-0.3-0.1-0.4C135.2,254.1,135,253.9,134.8,254.1z"/>
	<path class="st0" d="M153.7,69.1c-0.1,0-0.2,0.1-0.2,0.2c-0.1,0.1-0.1,0.3,0,0.4c0.1,0.1,0.2,0.3,0.2,0.3c0,0,0.1,0.1,0.1,0.1
		c0.2,0,0.4,0.1,0.6,0.1c0.3,0,0.7,0,1,0.1c0.2,0.1,0.4,0.2,0.6,0.1c0.1,0,0.2,0,0.3,0c0.5,0.1,1,0.1,1.5,0c0.1,0,0.2-0.1,0.3-0.2
		c0-0.1,0-0.3-0.1-0.4c-0.1-0.1-0.1-0.1-0.2-0.1c-0.2,0-0.4-0.1-0.7-0.2c0,0-0.1,0-0.2,0c-0.1,0-0.2,0-0.3,0l-1.2-0.3l-0.9-0.2
		C154.3,69,154,69,153.7,69.1z"/>
	<path class="st0" d="M159.5,67.4c0,0.3,0.2,0.3,0.5,0.3c0.2,0,0.3-0.1,0.4-0.3c0-0.1,0.1-0.3,0.1-0.4c0-0.4,0.1-0.7,0.2-1.1
		c0,0,0-0.1,0-0.1c0-0.3,0.1-0.7,0.2-1l0.1-0.4c0-0.2,0.2-0.3,0.2-0.5c0-0.1,0-0.3-0.2-0.3c-0.1-0.1-0.2-0.1-0.3-0.1
		c0-0.1,0-0.2-0.1-0.3c-0.1,0-0.1-0.1-0.2-0.1c-0.2-0.1-0.3,0.2-0.3,0.4c0,0.1,0.1,0.2,0.2,0.3c0,0-0.1,0.1-0.1,0.2l-0.2,0.7
		c-0.1,0.3-0.1,0.5-0.3,0.7c-0.1,0.2-0.1,0.5-0.1,0.8c0,0.1-0.1,0.2-0.1,0.3C159.6,66.8,159.5,67.1,159.5,67.4z"/>
	<path class="st0" d="M141.9,68.8c0,0-0.1,0-0.2,0c-0.2,0.1-0.3,0.2-0.2,0.4c0.1,0.3,0,0.6,0.2,0.8c0,0.1,0.1,0.1,0.1,0.2
		c0.1,0.3,0.2,0.6,0.2,0.9l0.1,0.3l0.2,0.4l0.2,0.4l0.1,0.2c0,0,0.1-0.1,0.2-0.1l0.8-0.5c0.3,0,0.3-0.2,0.5-0.3c0,0,0.1-0.1,0.1-0.1
		c0-0.1,0-0.2-0.1-0.2c-0.1,0-0.2,0-0.4,0c-0.1,0-0.3,0.1-0.5,0.1c-0.1,0-0.2,0.1-0.2,0.1c-0.1,0-0.1-0.2-0.1-0.3v-0.1
		c0-0.1-0.1-0.2-0.1-0.3c-0.1-0.6-0.3-1.2-0.6-1.7C142.1,69.1,142,69,141.9,68.8z"/>
	<path class="st0" d="M149.3,69.8c0,0.1,0,0.3,0.1,0.3c0.3,0.1,0.7,0.1,1,0c0.2-0.1,0.5-0.1,0.7-0.1c0.2,0,0.5,0,0.5,0
		c0.1,0,0.1-0.1,0.1-0.1c0,0,0-0.1,0.1-0.1c0.1-0.2-0.1-0.4-0.3-0.5c-0.1,0-0.3-0.1-0.4-0.1c-0.2,0-0.4,0-0.6,0
		c-0.3,0.1-0.7,0.2-1,0.3C149.4,69.6,149.3,69.7,149.3,69.8z"/>
	<path class="st0" d="M143.1,66.6c0.1-0.1,0.2-0.1,0.3-0.1c0.2,0,0.4-0.1,0.5-0.2c0.1-0.1,0.1-0.3,0-0.5c-0.3-0.3-0.5-0.4-0.8-0.2
		c-0.2,0-0.4,0.2-0.5,0.4c0,0.1,0,0.1,0,0.2C142.6,66.5,142.9,66.7,143.1,66.6z"/>
	<path class="st0" d="M148.5,64.8c0.1-0.1,0.1-0.2,0.1-0.2c0-0.1,0-0.1,0-0.2c-0.1-0.1-0.2-0.2-0.3-0.2h-0.2c-0.1,0-0.2,0-0.3,0.1
		c-0.1,0.1-0.1,0-0.2,0.2c-0.2,0.2-0.1,0.3,0,0.5c0.1,0.1,0.3,0.2,0.5,0.1C148.2,64.9,148.4,64.9,148.5,64.8z"/>
	<path class="st0" d="M145.2,70.3c0,0-0.1,0-0.1,0.1c-0.1,0.2-0.1,0.4,0,0.6c0.2,0.3,0.1,0.2,0.4,0.2c0,0,0.1,0,0.1,0
		c0.2-0.1,0.3-0.2,0.2-0.4C145.9,70.5,145.7,70.2,145.2,70.3z"/>
	<path class="st0" d="M159.5,63c-0.1,0-0.2,0-0.2,0c-0.1,0-0.2,0-0.4,0.1c-0.1,0.1-0.2,0.2-0.1,0.3c0,0.1,0,0.2,0.1,0.2
		c0.2,0.2,0.5,0.2,0.8,0c0.1,0,0.2-0.2,0.1-0.3C159.7,63.2,159.6,63.1,159.5,63z"/>
	<path class="st0" d="M159.2,68.4c-0.1,0.1-0.1,0.3,0,0.5c0.1,0.1,0.2,0.2,0.3,0.1c0.2-0.1,0.4-0.3,0.4-0.5c0-0.2-0.2-0.4-0.4-0.4
		C159.4,68.2,159.3,68.3,159.2,68.4z"/>
	<path class="st0" d="M153,63.3c-0.1,0.1-0.1,0.1-0.2,0.2c-0.1,0.1-0.1,0.2,0,0.3c0.1,0.2,0.2,0.3,0.4,0.2c0.1,0,0.2-0.1,0.2-0.1
		c0.1-0.1,0.2-0.3,0.1-0.5C153.4,63.2,153.2,63.2,153,63.3z"/>
	<path class="st0" d="M151.7,64.1c0.1-0.1,0.1-0.2,0.1-0.3c0,0,0,0,0,0c0-0.2-0.2-0.3-0.4-0.3c-0.2,0-0.4,0.1-0.5,0.2
		c0,0.1,0,0.1,0,0.2c0,0.1,0.1,0.2,0.1,0.3C151.2,64.3,151.5,64.3,151.7,64.1z"/>
	<path class="st0" d="M157.2,63.5c0.1,0,0.1-0.1,0.1-0.2c0-0.1-0.1-0.2-0.1-0.2c-0.1,0-0.1-0.1-0.2-0.1l-0.3,0h-0.1
		c-0.1,0.1-0.2,0.2-0.1,0.3c0,0,0,0,0,0C156.7,63.6,157,63.7,157.2,63.5z"/>
	<path class="st0" d="M155.4,63.3c0-0.1-0.1-0.2-0.3-0.2c-0.1,0-0.2,0-0.2,0.1c0,0.1,0,0.1,0,0.2c0,0.2,0.2,0.3,0.3,0.3
		C155.4,63.7,155.5,63.5,155.4,63.3z"/>
	<path class="st0" d="M147.7,70l-0.1-0.1c-0.1,0-0.2,0.1-0.2,0.3c0,0.1,0,0.1,0.1,0.2c0.1,0,0.2,0,0.2,0c0.1,0,0.2-0.1,0.2-0.2
		C147.9,70,147.8,70,147.7,70z"/>
	<path class="st0" d="M146.1,65.1C146,65.1,146,65.1,146.1,65.1c0-0.1-0.1-0.2-0.2-0.1c-0.1,0-0.2,0-0.2,0.1c0,0.1,0,0.1,0,0.2
		c0,0.1,0.2,0.2,0.3,0.2C146.1,65.4,146.1,65.3,146.1,65.1z"/>
	<path class="st0" d="M149.7,64.4c0.1,0,0.2-0.2,0.2-0.3c0-0.1-0.2-0.2-0.3-0.1c0,0,0,0,0,0c-0.1,0-0.1,0.1-0.1,0.2
		C149.5,64.3,149.6,64.4,149.7,64.4z"/>
	<path class="st0" d="M164.6,151.9c-0.1,0.3-0.2,0.5-0.3,0.8c-0.3,2-0.6,4-0.8,6c-0.1,1.2-0.2,2.4-0.4,3.6c-0.1,0.9-0.4,1.9-0.5,2.8
		c-0.2,1.5-0.5,3.1-0.6,4.6c-0.1,1-0.2,1.9-0.4,2.8c-0.2,1.2-0.4,2.5-0.6,3.7c-0.1,0.8-0.1,1.7-0.2,2.5c-0.2,1.8-0.6,3.6-1,5.3
		c-0.1,0.3-0.1,0.7-0.2,1l-0.7,4l0.1-0.1l-0.9,4.4c-0.1,0.3-0.1,0.6-0.1,0.9c0,0.6,0.2,0.8,0.5,0.8c0.1,0,0.3-0.2,0.3-0.4
		c0.5-1.8,0.8-3.7,1-5.6c0-0.3,0.1-0.7,0.2-1c0.3-1.1,0.4-2.2,0.6-3.4c0.2-1.2,0.4-2.4,0.5-3.5c0-0.1,0.1-0.3,0.1-0.4
		c0.3-1.2,0.6-2.4,0.8-3.6c0.2-0.7,0.3-1.5,0.3-2.2c0-1,0.2-1.9,0.4-2.8c0.3-1.1,0.4-2.2,0.5-3.2c0.1-1.2,0.2-2.5,0.4-3.7
		c0-0.4,0.1-0.8,0.2-1.2c0.4-1.5,0.6-3,0.7-4.6c0.1-1.3,0.1-2.6,0.3-4c0.1-0.6,0.1-1.3,0.1-1.9c0-0.5-0.1-1-0.1-1.5
		C164.8,151.8,164.7,151.7,164.6,151.9z"/>
	<path class="st0" d="M167.9,126.4c-0.1,0.3-0.1,0.6-0.2,0.8c-0.1,0.3,0,0.7-0.1,1c-0.2,1.4-0.4,2.8-0.7,4.1
		c-0.3,2.2-0.8,4.3-1.1,6.5c-0.3,1.9-0.4,3.8-0.2,5.7c0,0.3,0.2,0.3,0.3,0l0.5-1.2c0.3-0.6,0.5-1.3,0.7-2c0.2-1.1,0.5-2.2,0.6-3.4
		c0.1-0.7,0.2-1.4,0.2-2.1c0-1.4,0.1-2.8,0.4-4.2c0.1-1,0.2-1.8,0.3-2.4c0.2-1,0-2.1-0.6-3C168,126.2,167.9,126.3,167.9,126.4z"/>
	<path class="st0" d="M155.8,205.8c-0.2,0.2-0.3,0.4-0.4,0.6c-0.4,1.7-0.8,3.4-1.1,5.2c-0.1,0.8-0.2,1.7-0.4,2.5
		c-0.4,2-0.6,4.2-1.2,6.2c-0.1,0.6-0.1,1,0.2,1.2c0.3,0.2,0.5,0,0.7-0.6c0.1-0.3,0.1-0.6,0.2-0.9c0.2-1.4,0.5-2.7,0.6-4.1
		c0-0.3,0.1-0.6,0.1-0.8c0.2-0.8,0.3-1.6,0.4-2.5c0.2-1.4,0.5-2.7,0.8-4c0.1-0.7,0.3-1.5,0.4-2.2
		C156.2,205.8,156.1,205.5,155.8,205.8z"/>
	<path class="st0" d="M152,227.6c-0.2,0.5-0.3,1.1-0.4,1.6c0,0.7-0.1,1.6-0.2,2.4c-0.2,2.2-0.2,4.4-0.4,6.6
		c-0.1,1.4-0.1,2.8,0.1,4.2c0,0.1,0.1,0.2,0.1,0.3c0.1,0,0.2-0.1,0.2-0.2c0.3-1,0.5-2.1,0.5-3.2c0-1.2,0.1-2.5,0.1-3.7
		c0-0.9,0.1-1.8,0.1-2.7c0-1.1,0.1-2.2,0.2-3.3c0-0.6,0-1.3,0-1.9C152.5,227.3,152.2,227.3,152,227.6z"/>
	<path class="st0" d="M190.7,224.1c0.1,0,0.3-0.1,0.3-0.2c0-0.2-0.1-0.5-0.2-0.7c-0.2-0.3-0.3-0.7-0.4-1.1c-0.1-0.6-0.1-1.2-0.1-1.9
		l0.1,0.1c-0.2-1.4-0.3-2.7-0.4-4.1c0-0.1,0-0.2-0.1-0.3c-0.1-0.1-0.2-0.1-0.4-0.1c-0.1,0-0.3,0-0.4,0.1c-0.1,0-0.1,0.1-0.2,0.2
		c-0.3,0.3-0.3,0.7-0.2,1c0.2,0.4,0.3,0.8,0.3,1.2c0,0.7,0,1.4,0.2,2.1c0,0.9,0.3,1.7,0.3,2.6c0,0.5,0.5,0.8,0.9,1.1
		C190.5,224.1,190.6,224.1,190.7,224.1z"/>
	<path class="st0" d="M190.4,227.1c-0.2,0.1-0.3,0.2-0.3,0.4c0,0.2,0.1,0.4,0.1,0.7l0,0c0,0.2,0,0.5,0.1,0.7c0,0.2,0.5,0.2,0.9,0.2
		c0.4-0.1,0.6-0.2,0.6-0.4c0-0.1,0-0.2,0-0.3l-0.6-1.2C191.1,227,190.7,227,190.4,227.1z"/>
	<path class="st0" d="M189.2,214.3c0.1,0.1,0.3,0.1,0.4,0.1c0.1,0,0.2,0,0.3-0.1c0.2-0.5,0.3-1.1,0.2-1.7c0,0,0,0,0,0
		c-0.2-0.1-0.4-0.2-0.6-0.2c-0.5,0.1-0.9,0.3-0.9,0.6c0.1,0.4,0.1,0.7,0.2,1.1C189,214.2,189.1,214.3,189.2,214.3z"/>
	<path class="st0" d="M190.8,225.9c0.1-0.2,0.2-0.3,0.3-0.5H191v-0.2c0-0.1-0.1-0.2-0.4-0.2c-0.2,0-0.4,0.1-0.5,0.2
		c-0.2,0.2-0.2,0.4-0.1,0.7c0.1,0.1,0.2,0.1,0.4,0.1C190.5,226,190.7,226,190.8,225.9z"/>
	<path class="st0" d="M76.7,236.4c0.3-0.1,0.6-0.1,0.9-0.1c0.4,0.1,0.8,0.1,1.2,0.1c0.2,0,0.3,0,0.5-0.1c0.2-0.2,0.5-0.3,0.8-0.1
		c0.1,0.1,0.2,0.1,0.2,0c0.1-0.4,0.1-0.9,0-1.3c0-0.1-0.1-0.1-0.1-0.1c-0.3,0-0.5,0.1-0.8,0.2c-0.2,0.1-0.4,0.2-0.6,0.1
		c-0.1-0.1-0.2,0-0.3,0c-0.2,0.1-0.5,0.1-0.7,0.1c-0.4-0.1-0.8,0-1.2,0.2c-0.1,0.1-0.2,0.1-0.2,0.1c-0.1,0-0.2,0-0.3,0
		c0,0.2,0,0.3,0,0.5c0,0.3,0.1,0.5,0.2,0.5C76.5,236.4,76.6,236.4,76.7,236.4z"/>
	<path class="st0" d="M70.8,236.5c0.3,0,0.6,0,0.8,0l0-0.2h0.9c0.1,0,0.1-0.1,0.1-0.3c0-0.2,0-0.3,0-0.5c0-0.1,0-0.2-0.1-0.3
		c-0.1,0-0.3,0-0.4,0c-0.1,0-0.2,0.2-0.3,0.2c-0.4,0.1-0.8,0.1-1.2,0c-0.1,0-0.1,0-0.2,0c0,0.1-0.1,0.2-0.1,0.2c0,0.1,0,0.3,0,0.4
		c0,0.1,0.1,0.3,0.2,0.4C70.6,236.4,70.7,236.5,70.8,236.5z"/>
	<path class="st0" d="M74.7,236.5c0.1-0.1,0.2-0.1,0.3-0.2c0.1-0.2,0.1-0.4,0.1-0.5c0-0.2,0-0.3-0.1-0.5c-0.2-0.4-0.5-0.2-0.7,0.1
		c-0.1,0.2-0.1,0.4,0,0.6C74.5,236.3,74.6,236.5,74.7,236.5z"/>
	<path class="st0" d="M137.2,118c0.3-0.1,0.4-0.1,0.4-0.3c0.1-0.3,0.1-0.5,0-0.8c-0.1-0.2-0.3-0.3-0.5-0.4c-0.2-0.1-0.3-0.1-0.3-0.1
		c0-0.1,0.1-0.3,0-0.4c-0.1-0.4-0.3-0.9-0.8-0.6c-0.1,0.1-0.2,0-0.3-0.1c-0.3-0.3-0.8-0.5-1.2-0.6c-0.2,0-0.3,0.2-0.4,0.3
		c-0.6,0.1-1.1,0.4-1.4,0.8c-0.1,0.2-0.5,0.5,0.2,0.9c0,0,0,0.1,0,0.1c-0.1,0.2-0.2,0.4-0.3,0.6c-0.2,0.4,0.2,0.7,0.6,0.9
		c0.2,0,0.2,0.1,0,0.3c-0.3,0.3-0.2,0.8,0.1,1.1c0.2,0.2,0.4,0.3,0.7,0.4c0,0.1,0.4,0.1,0.6-0.1c0.4-0.4,0.6-1,0.5-1.5
		c0-0.1,0-0.3,0-0.4c0-0.1,0-0.3,0-0.4c0,0.1,0.1,0.3,0.1,0.4c0,0.2,0,0.8,0,1.2c0,0.4,0.2,1.1,0.6,1c0.4-0.1,0.7-0.3,0.9-0.5
		c0.2-0.2,0.3-0.6,0.2-0.9C136.8,118.2,136.9,118.2,137.2,118z"/>
	<path class="st0" d="M129.3,144.4c-0.2,0.1-0.3,0.1-0.4,0.2c-0.3,0.3-0.6,0.7-0.8,1.1c-0.1,0.1-0.1,0.3-0.1,0.5
		c0,0.2,0.1,0.3,0.1,0.5c0.3,0.8,0.8,1.5,1.6,1.9c0.1,0.1,0.2,0.1,0.4,0.1c0.4,0,0.6-0.2,0.6-0.6c0-0.2,0-0.3,0-0.5l-0.1-0.4
		c-0.1-0.2-0.1-0.4,0-0.6c0,0,0,0,0.1,0.1c0,0,0.1,0.3,0,1.1c0,0.3,0,0.5,0.2,0.8c0.2,0.2,0.5,0.3,0.8,0.2c0.5-0.1,1-0.5,1.2-1
		c0.1-0.1,0.1-0.3,0.1-0.4c0.1-0.3,0.1-0.5,0.2-0.8c0-0.1,0-0.3,0-0.4c0-0.7-0.6-1.4-1.3-1.5l-0.4-0.1
		C130.7,144.2,130,144.2,129.3,144.4z"/>
	<path class="st0" d="M127.5,173.3c-0.1,0-0.4,0.1-0.4,0.4s-0.1,0.5-0.5,0.4c-0.1,0-0.2,0-0.2,0.1c0,0.3,0,0.6,0,0.8
		c0,0.2-0.2,0.3-0.2,0.5c0,0.1-0.1,0.3-0.2,0.4c-0.1,0.2-0.3,0.5-0.2,0.8c0.1,0.2,0.5,0.4,0.7,0.5c0.2,0.2,0.4,0.3,0.7,0.5v0.1
		c0.1,0,0.1,0.1,0.2,0.1c0.3,0,0.5-0.1,0.7-0.2c0.2-0.3,0.3-0.7,0.3-1.1V176c0-0.1,0-0.3,0-0.4c0.1,0.4,0.1,0.9,0.1,1.3
		c0,0.7,0.1,1.5,0.4,1.6c0.1,0.1,0.3,0.1,0.5,0.1c0.6-0.2,1.1-0.6,1.5-1.1c0.3-0.4,0.9-0.9,0.8-1.6c-0.1-0.4-0.2-0.9-0.4-1.3
		c-0.2-0.4-0.4-0.8-0.7-1.1c-0.1-0.1,0-0.4-0.1-0.5c-0.1-0.2-0.2-0.3-0.4-0.3c-0.4,0-0.7,0.3-0.9,0.2c-0.3-0.1-0.7-0.1-1,0.1
		C127.7,173.2,127.6,173.4,127.5,173.3z"/>
	<path class="st0" d="M125.4,204.7c0,0,0.1,0,0.1,0.1s-0.1,0.2-0.1,0.3c0,0.1,0.1,0.3,0.2,0.3c0.1,0.1,0.4,0,0.1,0.2c0,0,0,0,0,0.1
		s0,0.1,0,0.1c-0.2,0.7,0.4,1,0.9,1c0.2,0,0.5-0.2,0.7-0.4c0.1-0.2,0.1-0.3,0.1-0.5c0-0.3-0.1-1-0.1-1c0,0,0-0.1,0-0.1
		c0,0,0,0.1-0.1,0.1s0,0-0.1,0c0,0-0.1,0-0.1,0s0.1-0.1,0.1-0.1c0.1-0.1,0-0.1,0-0.1c0,0,0.1,0,0.1,0h0.1c0,0,0,0,0,0c0,0,0,0,0,0
		c0,0,0,0,0,0c0,0.1,0,0.1,0,0.1s0,0,0,0.4l-0.1,0.2c0,0.1,0.1,0.2,0.2,0.2c0.1,0.2,0.2,0.3,0.3,0.4c0.1,0,0.2-0.1,0.2-0.1l0.4-0.1
		c0.1,0,0.1,0,0.2,0c0.2,0,0.4,0,0.6-0.1c0.1,0,0.1-0.1,0.1-0.1c0.1-0.1,0.1-0.1,0.1-0.2c0-0.2-0.1-0.4-0.3-0.4
		c-0.2-0.1-0.4-0.2-0.4-0.2s0-0.1,0-0.1c0-0.1-0.1-0.2-0.1-0.3c0-0.1,0-0.1,0-0.3c0-0.1-0.1-0.2-0.1-0.3c0-0.2-0.1-0.4-0.2-0.5
		c-0.1-0.1-0.2-0.2-0.4-0.2c-0.1,0-0.3,0-0.4,0c-0.1,0-0.1-0.1-0.3-0.3c-0.3-0.1-0.6-0.1-0.7,0.3c-0.3,0-0.5,0-0.8,0.1
		c-0.1,0-0.1,0.1-0.2,0.1c-0.1,0.1-0.1,0.4,0,0.5c0.1,0.2,0.1,0.3-0.1,0.3C125.2,204,125,204.5,125.4,204.7z"/>
	<path class="st0" d="M121.6,234.4c0.1,0.2,0.2,0.4,0.3,0.5c0,0.1,0.1,0.1,0.2,0.1s0.3,0.1,0.3,0.3c0,0.2,0.4,0.4,0.6,0.2
		c0.1,0,0.1-0.1,0.2-0.1c0.1,0,0.1,0.1,0.2,0c0.2-0.3,0.2-0.7,0.2-1c0-0.2,0-0.4,0-0.6c0,0,0-0.1,0-0.1c0.1-0.1,0.1,0,0.1,0
		c0,0-0.1,0-0.1,0c0.3,0.1,0.3,0.1,0.2,0.1c-0.1,0-0.1,0-0.1,0.1c0,0.1,0,0.1,0,0.1s0,0.1,0.1,0.3c0.1,0.3,0,0.2,0,0.2
		c0,0,0,0-0.1,0.1c0,0.1,0,0.2,0,0.3c0,0.3,0.1,0.5,0.2,0.8c0,0,0.1,0.1,0.1,0.1c0.1,0,0.1,0,0.2,0c0.1,0,0.3,0,0.4,0
		c0.2,0,0.3-0.1,0.4-0.1c0.1-0.1,0.4-0.1,0.4-0.3c-0.1-0.1-0.1-0.1-0.1-0.2c0.5-0.2,0.4-0.8,0.4-1.2c0,0-0.1-0.1,0-0.1
		c0.1-0.1,0.1-0.2,0.1-0.4c0-0.2-0.1-0.5-0.2-0.7c0-0.2-0.1-0.3-0.2-0.5c-0.2-0.2-0.4-0.3-0.6-0.3c-0.2,0-0.4,0-0.5-0.1
		c-0.1,0-0.1,0-0.2,0c-0.2,0-0.4,0.1-0.6,0.1s-0.3-0.1-0.5,0c-0.2,0-0.3,0.1-0.4,0.2c-0.1,0.2-0.3,0.4-0.5,0.4
		c-0.2,0-0.3,0.1-0.5,0.2c-0.2,0.2-0.2,0.6,0,0.8c0,0,0.1,0.1,0.1,0.1c0.1,0.1,0.1,0.1,0,0.2S121.6,234.2,121.6,234.4z"/>
	<path class="st0" d="M106.2,127.5l-0.5-5.3c0-0.2-0.3-0.3-0.5-0.4c-0.2-0.1-0.6,0.2-0.7,0.5v0.2v0.4l0.1,0.7c0.1,1,0.2,1.9,0.3,2.8
		c0.4,3.2,0.8,8.5,1.2,12c0.2,2.2,0.4,4.2,0.6,6.3c0,0.7,0.2,1.5,0.4,2.1c0.1,0.1,0.3-0.8,0.3-1.5c-0.2-3.9-0.4-7.9-0.7-11.8
		C106.6,131.4,106.4,129.5,106.2,127.5z"/>
	<path class="st0" d="M107.7,164.2c0.1-0.9,0.2-1.8,0.2-2.6c0.2-1.7,0.2-3.5,0-5.3c-0.1-0.7-0.2-1.3-0.3-2c-0.3-0.9-0.4,1.9-0.4,4.9
		S107.5,165.3,107.7,164.2z"/>
	<path class="st0" d="M89.7,70c-0.8,1-1.7,2.1-2.4,3.2c-0.5,0.9-1.1,1.7-1.7,2.5c-0.3,0.4-0.6,0.9-0.8,1.3c-0.3,0.5-0.5,1-0.8,1.5
		c-0.3,0.6-0.5,1-0.8,1.6C82.7,81,82.3,82,82,82.9c-0.4,0.9-0.7,1.9-0.8,2.9c-0.1,0.4-0.2,0.8-0.3,1.2h0c-0.1,0.4-0.2,0.8-0.3,1.2
		c0,0,0,0,0,0.1c0,0.2,0.2,0.3,0.4,0.3c0.3-0.1,0.6-0.4,0.7-0.7c0.2-0.4,0.3-0.8,0.4-1.2c0.3-1.5,0.8-2.9,1.3-4.2
		c0.9-1.8,1.9-3.6,3-5.4c0.4-0.6,0.8-1.3,1.2-2c0.6-1.2,1.4-2.2,2.4-3.1c0.3-0.3,0.6-0.6,0.8-1c0.1-0.1,0.1-0.3,0.1-0.5
		c0-0.4-0.4-0.7-0.8-0.7C89.9,69.9,89.7,69.9,89.7,70z"/>
	<path class="st0" d="M79.5,93.8c-0.2,0-0.4,0.1-0.5,0.3c-0.5,1-0.6,2.2-0.3,3.3c0,0.1,0,0.1,0.1,0.2c0.1,0.1,0.3,0.1,0.5,0
		c0.4-0.4,0.7-1,0.7-1.6c0-0.6,0-1.2,0-1.7c0,0,0,0,0,0C80,94,79.8,93.8,79.5,93.8z"/>
	<path class="st0" d="M46.1,225.2c-2.5-0.2-5-0.6-7.4-1.2l-6.3-1.4c-1.3-0.3-2.6-0.6-3.9-0.7c-0.4,0-1-0.1-1.4-0.2H27h-0.1v-0.1
		v-0.2V221c-0.1-0.9-0.1-1.7-0.2-2.5v-0.4c0-0.2,0-0.3-0.1-0.5v-0.2c0,0-0.1-0.1-0.2-0.1l-0.5-0.2l-0.3-0.1l-0.3-0.1
		c-0.2-0.1-0.3-0.2-0.5-0.3c-0.2-0.2-0.4-0.3-0.6-0.5c0-0.1-0.1-0.2-0.1-0.2c-0.1-0.1-0.2-0.1-0.3-0.2c-0.7-0.8-1.3-1.8-1.6-2.8
		c-0.2-0.8-0.3-1.5-0.4-2.3c0-0.8,0.1-1.6,0.3-2.3c0.8-2.8,1.8-5.6,3-8.2c1.3-3.2,2.8-6.2,4-9.4c0.9-1.9,1.7-3.8,2.3-5.8
		c1-2.5,1.7-5.1,2.1-7.7c0.1-0.7,0.2-1.5,0.2-2.2c-0.1-1.3-0.4-1.5-0.8-0.9c-0.5,1.2-0.9,2.5-1.2,3.9c-0.2,0.7-0.4,1.3-0.5,2
		s-0.3,1.4-0.5,2.1c-0.6,2.6-1.5,5.1-2.6,7.5c-1.1,2.4-2.1,5-3.3,7.4c-0.2,0.5-0.4,1-0.7,1.6c-0.4,0.9-0.7,1.9-1.1,2.8
		c0-0.3-0.1-0.5-0.1-0.8l0,0c-0.1-0.7-0.3-1.5-0.4-2.2c0-0.4-0.2-0.8-0.5-1.1c-0.1-0.1-0.3-0.2-0.3,0c-0.3,0.4-0.4,0.9-0.4,1.5
		c0,0.4,0.1,0.7,0.1,1c0.1,0.9,0.2,1.8,0.4,2.6c0,0.2,0.1,0.4,0.1,0.6c0.1,0.3,0.2,0.6,0.3,0.8c-0.3,0.9-0.6,1.9-0.9,2.8
		c-0.1-0.2-0.4-0.4-0.7-0.5c-0.6-0.1-1.1,0-1.6,0.3c-1.9,1.2-4.1,1.6-6.2,1.2c-1-0.3-2-0.8-2.8-1.5c-0.8-0.7-1.5-1.6-2-2.5
		c-0.2-0.5-0.5-0.9-0.8-1.3c-0.3-0.3-0.5-0.6-0.8-0.9v0l-0.1-0.2l-0.1-0.4c0-0.3-0.1-0.6-0.1-0.9c-0.1-0.6-0.1-1.2-0.1-1.8
		c-0.3-8.8,1.3-17.5,4.7-25.5c0.2-0.4,0.4-1,0.6-1.5c0.2-0.5,0.3-1,0.3-1.5c0.1-1.3,0.3-2.5,0.6-3.7c0.9-4.3,1.4-8.6,1.7-13
		c0.3-4.3,0.5-8.7,0.6-13c0.1-0.8,0.1-1.6,0-2.3c-0.4-2-0.5-4-0.3-6c0-7.2-0.1-14.4-0.3-21.6c0-0.9-0.1-1.8-0.3-2.7
		c-0.3-1.2-0.5-2.4-0.4-3.6c-0.1-4.6-0.2-9.1-0.2-13.6c0-4.5,0.8-8.9,2.5-13.1c0.6-1.3,1.2-2.5,1.7-3.9c0.3-0.7,0.8-1.3,1.5-1.7
		c1.8-1.4,3.4-2.9,5.3-4.2l0.3-0.2c0,0,0,0,0.1-0.1c0,0,0,0,0.1,0.1c0.1,0.1,0.3,0.1,0.4,0.2s0.2,0.1,0.4,0.1c0.2,0,0.5,0,0.7,0
		c0.4,0,0.8-0.1,1.1-0.2c0.6-0.2,1.4,0.5,2,0.2c0.5-0.2,1-0.4,1.6-0.5c0.3-0.1,0.6-0.1,0.9,0c0,0,0,0,0.1,0l0.2,0.2l0.4,0.3l0.8,0.6
		c0.6,0.4,1.3,0.9,1.8,1.2c0.5,0.3,0.8,1.2,1.8,0.8c0.7-0.3,0.6-0.1,0.7,0.5c0.1,0.4,0.4,0.5,0.6,0.8s0.1,1,0.4,1.1
		c0.4,0.1,0.9-0.6,1.3-0.6c0.8,0,1.7-0.1,2.5-0.2c0.2,0,0.4-0.1,0.6-0.2c0.3-0.1,0.5-0.2,0.7-0.3c0.4-0.4,0.7-0.9,0.7-1.5
		c0-0.6-0.1-1.2-0.3-1.8c0.3,0.1,0.6,0.3,0.9,0.4c0.6,0.2,1.1,0.3,1.7,0.3c0.4-0.1,0.8-0.2,1.1-0.5c0.2-0.2,0.4-0.4,0.6-0.6
		c0.1-0.2,0.2-0.5,0.3-0.7c0-0.2,0.1-0.5,0.1-0.7s0-0.4,0-0.6c0-0.2-0.1-0.5-0.1-0.7c0.5,0.3,1,0.3,1.5,0.2c0.6-0.2,1-0.6,1.3-1.1
		c0.2-0.3,0.3-0.6,0.4-0.9c0.1-0.7,0.1-1.5,0-2.2c0-0.1,0-0.2,0-0.3c0,0,0,0.1,0,0.1c0.3,0.4,0.7,0.6,1.1,0.8c0.4,0.1,0.8,0,1.1-0.2
		c0.1-0.1,0.3-0.2,0.4-0.4c0.1,0.3,0.1,0.6,0.2,0.9c0,0.2,0.1,0.4,0.1,0.6c0.2,1.2,0.4,2.4,0.7,3.7c0.1,0.6,0.2,1.2,0.3,1.8
		c0,0.7,0.1,1.3,0.1,2c0,1,0.2,1.9,0.3,2.9c0.1,0.5,0.2,0.9,0.2,1.4c0,0.7,0,1.5,0,2.2c-0.1,0.7-0.1,1.3-0.1,2
		c0.1,0.7,0,1.4,0.1,2.1c0.1,1.1,0,2.2-0.1,3.3c-0.1,0.7-0.3,1.4-0.4,2.1c-0.2,0.7-0.3,1.5-0.3,2.3c0,0.7-0.1,1.4-0.3,2
		c-0.2,0.6-0.4,1.3-0.6,2c-0.1,0.5-0.3,0.9-0.5,1.3c-0.3,0.5-0.6,1.1-0.8,1.6s-0.6,1.1-0.8,1.7c-0.4,0.8-0.8,1.5-1.2,2.3
		c-0.3,0.6-0.7,1.2-1.1,1.7c-0.3,0.4-0.6,0.8-0.9,1.2c-0.2,0.3-0.4,0.5-0.6,0.8c-0.8,0.9-1.6,1.8-2.3,2.8c0,0.1-0.1,0.2-0.2,0.2
		c-0.7,0.8-1.3,1.6-1.9,2.4c-1,1.3-2,2.7-2.9,4.1c-0.4,0.6-0.7,1.2-1,1.7c-0.3,0.6-0.6,1.2-0.9,1.9c-0.2,0.6-0.4,1.1-0.5,1.7
		l-0.2,0.6c0,0.2,0,0.3,0,0.5c0,0.6,0,1.3,0,1.9c0,0.6,0,1.3-0.1,1.9c-0.2,1.9-0.1,3.8-0.1,5.7c0,1,0,2,0.1,2.9
		c-0.1,0.6,0,1.2,0.3,1.7c0.1,0.3,0.2,0.6,0.2,0.9c0,0.4,0,0.9,0.1,1.3c0,0.4,0.2,0.7,0.3,0.7s0.3-0.4,0.5-0.9c0-0.2,0-0.4,0-0.6
		c0-0.4,0-0.8,0-1.2c0-0.7,0-1.5,0.1-2.2c0-0.9,0-1.7,0.1-2.5c0.1-0.9,0.1-1.9,0-2.8c-0.1-0.5-0.1-0.9-0.1-1.4
		c0.1-1.2,0.2-2.3,0.2-3.5c0-1.1,0.2-2.2,0.5-3.2c0-0.1,0-0.1,0-0.2c0-0.2,0.1-0.4,0.2-0.6l0.8-1.6l0.9-1.6l1-1.6l1.7-2.2
		c0.7-0.9,1.5-1.8,2.1-2.7c0.6-0.9,1.1-1.6,1.8-2.4c0.2-0.3,0.5-0.7,0.7-1c0.8-1,1.4-2.1,2.2-3.2c0.5-0.9,1.2-1.8,1.7-2.8
		c0.2-0.5,0.5-0.9,0.7-1.4c0.2-0.5,0.4-0.9,0.5-1.4c0.1-0.4,0.3-0.8,0.4-1.1s0.2-0.8,0.3-1.1c0.2-0.8,0.6-1.5,0.7-2.3
		c0.3-1.1,0.6-2.1,0.8-3.2c0.4-2,0.5-4,0.4-5.9c0-0.6,0-1.1,0.1-1.7c0.2-1.1,0.3-2.2,0.3-3.3c0-1.4-0.1-2.7-0.2-4.1
		c0-0.4-0.1-0.8-0.2-1.2c-0.1-1.1-0.3-2.1-0.4-3.2c-0.1-1.5-0.4-3.1-1-4.5c-0.1-0.3-0.2-0.8-0.4-1.2c0-0.3-0.1-0.5-0.2-0.8
		c0.4,0.9,0.9,1.9,1.5,3c0.5,1,1,2.1,1.4,3.1l0,0c1,2.3,2,4.7,3,7.1c1.8,4.3,3.6,8.5,5.2,12.9c0.4,1.1,0.8,2,1.2,3
		c0.1,0.2,0.3,0.4,0.3,0.3c0.2-1.2-0.2-2.7-1.5-6.2c-0.2-0.4-0.3-0.8-0.4-1.2c-0.9-2.1-1.7-4.1-2.4-6.3c-0.1-0.3-0.2-0.5-0.3-0.8
		c-0.8-1.8-1.5-3.7-2.2-5.5c-0.8-2-1.7-3.9-2.6-5.9c-0.9-1.9-2-3.8-3.3-5.5c-0.2-0.2-0.3-0.3-0.6-0.5C55.1,58,54.8,58,54.6,58
		l-0.1-0.5v-0.1c-0.2-0.6-0.4-1-0.6-1.6c-0.2-0.6-0.2-1.4-0.6-1.7c-0.5-0.3-0.5-0.7-0.4-1.4c0.1-0.7-1.1-0.6-1.3-1.1
		s0.1-1.3-0.3-1.8c-0.4-0.5-0.6-1.4-1.6-1.3c-0.4,0-1.2-0.8-1.3-1.2c-0.1-0.4-0.5-0.5-0.5-1c0-0.5-0.2-0.6-0.6-0.6
		c-0.8,0-1.2,0-1.5-1c-0.1-0.4-0.4-0.7-0.8-0.7c-0.3,0-0.7-0.1-1-0.1c-0.5-0.1-1-0.1-1.5,0c-0.4,0.1-0.8,0.3-1.1,0.4
		c-0.4,0.2-0.7,0.5-1,0.5c-0.4,0.1-0.7,0.1-1.1,0c-0.1,0-0.1,0-0.2,0c0.1-0.1,0.2-0.3,0.1-0.5c0-0.4-0.1-0.8-0.2-1.1
		c0-0.2-0.1-0.5-0.1-0.7c0-0.1,0-0.2,0-0.4c0-0.1,0-0.1,0-0.1v-0.2c0-0.1,0.1-0.2,0.1-0.3c0.1-0.2,0.2-0.4,0.3-0.6l0.4-0.4l0.2-0.1
		c0.3-0.2,0.5-0.4,0.8-0.6c0,0,0.5-0.2,1-0.3c0.4-0.1,0.8-0.2,1.3-0.2c0.3,0,0.6-0.1,0.8-0.2c0.3-0.1,0.6-0.1,0.9-0.2
		c0.3,0,0.5-0.1,0.7-0.3c0.3-0.2,0.7-0.2,1-0.4c0.5-0.2,1.1-0.5,1.5-0.7c0.4-0.2,0.8-0.4,1.1-0.6c0.6-0.4,1.1-0.8,1.6-1.2
		c0.2-0.2,0.2-0.5,0.4-0.6c0.2-0.2,0.4-0.4,0.6-0.5c0.3-0.3,0.7-0.5,0.9-0.8c0.3-0.3,0.5-0.5,0.8-0.8c0.2-0.2,0.4-0.4,0.7-0.6
		c0.3-0.2,0.8-0.4,1.1-0.5s0.6-0.4,0.9-0.6c0.3-0.2,0.6-0.3,0.9-0.5c0.3-0.2,0.6-0.3,0.9-0.5c0.9-0.5,2-0.5,2.7-1.4
		c0.4-0.5,0.9-0.5,1.4-0.8c0.6-0.3,1.3-0.5,2-0.6c0.6-0.2,1.1-0.5,1.7-0.7c0.3-0.1,0.7-0.2,1.2-0.3l1.5-0.2c0.9-0.1,1.8-0.3,2.7-0.5
		c0.7-0.1,1.3-0.2,2-0.1l1.8-0.2c0.5,0,1-0.1,1.5-0.1h0.5H77h0.3h1.3c0.4,0,0.9-0.1,1.3-0.3c0.2-0.1,0.3-0.7,0.1-0.8
		c-0.3-0.2-0.6-0.4-1-0.4c-0.7-0.1-1.3-0.1-2-0.1c-0.6,0.2-1.2,0-1.6,0.2c-0.4,0.2-0.9,0-1.2,0.1c-0.3,0.1-0.8,0-1,0.1
		c-0.2,0-0.4,0.3-0.6,0.3c-0.2,0.1-0.5,0.1-0.7,0.1c-0.4,0-0.8,0-1.2,0c-0.2,0-0.6,0.1-1,0.1l-1,0.2c-0.4,0.1-0.8-0.3-1,0.3
		c-0.3,0.1-0.5,0.1-0.8,0.2c-0.9,0-1.9,0.3-2.7,0.8c-0.3,0.2-0.6,0.1-0.9,0.3c-1,0.4-2.2,0.4-3,1.2c-0.2,0.1-0.3,0.2-0.5,0.2
		c-0.6,0.2-1.1,0.5-1.6,0.8c-0.4,0.3-1.1,0.1-1.2,0.9c-0.2,0.1-0.4,0.2-0.6,0.3c-0.3,0.2-0.8,0.1-1.1,0.5s-0.8,0.6-1.2,0.9
		c-0.2,0.1,0,0.5-0.4,0.4c-0.4-0.1-0.2,0.6-0.7,0.3c-0.1,0,0,0-0.1,0.1c-0.1,0.1-0.1,0.3-0.2,0.4c-0.7,0.5-1.4,1.1-2.1,1.7
		c-0.3,0.3-0.5,0.7-0.8,0.9c-0.5,0.4-1,0.8-1.5,1.1c-0.4,0.3-0.9,0.6-1.4,0.8c-0.2,0.1-0.5,0.2-0.7,0.3l-0.7,0.3
		c-0.2,0.1-0.5,0.3-0.6,0.4c-0.1,0-0.2-0.1-0.4-0.1s-0.3-0.4-0.5,0c-0.1,0.4-1.2,0.3-1.4,0.4c0,0-0.1,0-0.2-0.1
		c-0.1-0.1-0.2-0.1-0.2,0s0.1,0.2-0.1,0.1c-0.2-0.1-0.7,0.1-1.6,0.5c-0.9,0.4-1.1,0.3-1.2,0.5c0,0.1-0.2,0.1-0.4,0.1
		c-0.3-0.1-0.6,0-0.6,0.4c0,0.3-0.1,0.5-0.2,0.8c-0.1,0.1-0.2,0.3-0.3,0.4c-0.1,0.1-0.1,0.3-0.3,0.3c-0.2,0.1-0.1,0.2-0.1,0.3
		c0,0.1,0.1,0.2,0.1,0.3c0,0,0,0.1,0,0.1V42c0,0.2,0,0.3,0,0.5c0,0.6,0,1.3,0,1.9c0,0.1,0,0.1,0,0.2h-0.1c-0.3,0-0.7,0-1,0.1
		c-0.6,0.2-1.1,0.4-1.6,0.8c-0.3,0.3-0.8,0.4-0.8,0.8c-0.1,0.4,0.3,1,0.2,1.3c-0.1,0.7-1.2,0.6-1.5,0.9c-0.1,0.1-0.1,0.1-0.2,0.2
		c-0.1,0,0,0.1-0.1,0c0,0,0,0,0,0h-0.3c-1,0-1.9,0.4-2.7,0.9c-0.6,0.5-1.2,1-1.6,1.6c-1,1.4-2,2.9-2.8,4.4c-0.3,0.5-0.7,1.1-1,1.7
		c-0.1,0.1-0.4,0.6-0.9,1.3c-0.6,0.9-0.9,1.9-1,3c0,1.1,0.2,2.2,0.8,3.2c0,0.1,0.1,0.1,0.1,0.2l-0.2,0.1c-2.2,1.3-4.2,3-5.9,4.9
		c-1.7,2-2.9,4.3-3.5,6.9c-0.2,0.4-0.4,0.8-0.6,1.2c-0.3,0.4-0.4,0.8-0.4,1.3c0.1,0.7,0,1.5-0.1,2.2c-0.1,0.7-0.3,1.4-0.4,2.2
		c-0.3,2.4-0.5,4.7-0.5,7.1c0,2.4,0,4.7,0.1,7.1l0.3,14.2c0,0.9,0.1,1.8,0.3,2.6c0.3,1.1,0.4,2.2,0.4,3.3c0.1,6.7,0.1,13.5,0.1,20.2
		c0,1.9-0.4,3.8,0.2,5.7c0,0.4,0,0.9-0.2,1.3c-0.1,0.4-0.2,0.8-0.2,1.3c0.2,1.2,0.2,2.5,0,3.7c-0.3,5.7-1.1,11.4-2.4,16.9
		c-0.2,0.7-0.4,1.3-0.6,2l-0.8,2c-0.5,1.3-1.1,2.7-1.6,4c-1,2.7-1.7,5.5-2.3,8.4c-0.3,0.9-0.4,1.8-0.4,2.7c0.1,1.2,0.1,2.5-0.1,3.7
		c-0.1,1.3-0.2,2.7-0.2,4c0,0.4-0.2,0.9-0.3,1.3c-0.1,0.5-0.1,1.1,0,1.7c0.1,0.7,0.4,1.3,0.4,2c0,0.4,0,0.8,0.1,1.2l0.1,0.6v0.3v0.2
		v0.1v0.1v0.1c1,2,2,3.9,3.3,5.8c0.4,0.5,0.9,0.9,1.5,1.2c0.1,0.1,0.2,0.1,0.3,0.1c-0.1,0.2,0,0.4-0.1,0.7c0,0,0,0.1,0,0.1l0.2,0.9
		l0.3,0.9c0,0,0.1,0,0,0.1c-0.1,0.2,0,0.3-0.1,0.5c-0.1,0.3-0.1,0.6,0.2,0.9c0.1,0.2,0.2,0.4,0.2,0.7c0,0.1,0,0.3,0.1,0.4
		c0.1,0.1,0.2,0.2,0.4,0.2c0.1,0,0.2,0,0.3,0c0.3-0.2,0.4-0.4,0.3-0.6c-0.1-0.2-0.1-0.5,0.1-0.6c0.1-0.2,0.2-0.4,0.2-0.6
		c0-0.1,0-0.2-0.2-0.3c-0.1,0-0.2-0.1-0.2-0.2c0-0.1-0.1-0.3-0.1-0.4c-0.1-0.3-0.1-0.6,0-0.9c0.1-0.2,0.1-0.5,0.1-0.8
		c0,0,0-0.1,0-0.1c0.8,0.3,1.7,0.5,2.6,0.5l1.5-0.1c0.5-0.1,0.9-0.2,1.4-0.3c0.9-0.2,1.8-0.5,2.6-0.9c0.3-0.1,0.5-0.3,0.7-0.5
		c0.3-0.3,0.6-0.6,0.8-0.9c-0.1,0.4-0.2,0.8-0.2,1.2c-0.2,1.8,0,3.7,0.7,5.4c0.3,0.8,0.7,1.5,1.2,2.2c-0.3,0.2-0.6,0.4-1,0.5
		c-0.1,0-0.2,0.1-0.2,0.2c0,0.1,0,0.1,0,0.2c0.2,0.5,0.4,0.7,0.7,0.6c0,0,0.1,0,0.1,0c0.2-0.1,0.4-0.3,0.6-0.1l0.3-0.9c0,0,0,0,0,0
		l-0.2,0.9c0.1-0.2,0.3-0.1,0.5-0.2c0.1-0.1,0.3-0.1,0.4-0.1c0.4,0.3,0.8,0.6,1.2,0.8l0.3,0.1l0.2,0.1h0.1c0,0,0,0.1,0,0.1v0.4v0.7
		c0,0.5,0.1,0.9,0.1,1.4v0.7c0,0.4,0.1,0.8,0.1,1.2l1.8,0.6c3.4,1,6.9,1.7,10.4,2.1c2.5,0.3,5,0.6,7.7,1c1.6,0.2,3.1,0.4,4.7,0.4
		c1,0.1,2,0,2.9-0.2c0.5-0.1,0.5-0.2-0.1-0.3C50.9,225.7,48.5,225.4,46.1,225.2z M42.3,69.1c0,0,0.1-0.1,0.1-0.1L42.3,69.1z
		 M52.7,59.2l0,0.1c0,0.1-0.1,0-0.1,0c0-0.1,0-0.2,0.1-0.3c0-0.1,0.1-0.1,0.1-0.2l0,0.1C52.7,59,52.7,59.1,52.7,59.2z M25.4,59.1
		c0.3-0.5,0.6-1,1-1.5c0.5-1.1,1.2-2.2,1.9-3.2c0.2-0.2,0.8-0.1,0.7-0.5c-0.1-0.4,0.1-0.6,0.3-0.8c0.4-0.5,0.8-1,1.2-1.5
		c0.4-0.4,0.9-0.7,1.5-0.9c0.1,0,0.3-0.1,0.4-0.1h0.2h0.4c0.4-0.1,0.8-0.3,1.1-0.6c0.5-0.5,0.5-1.3,1.3-1.4c0.8,0,0.4-1.1,0.8-1.4
		c0.5-0.4,1.1-0.7,1.7-0.7c0.7,0,1.4-0.1,2-0.4c0.6-0.2,1.1-0.7,1.8-0.9c0.3,0,0.6,0,0.9,0.1c0.4,0.1,0.6,0.2,0.7,0.2
		c0.1,0,0.2,0,0.4,0l0.4,0.1c0.3,0.1,0.6,0.2,0.9,0.3c0.6,0.3,1.1,0.6,1.6,1c0.5,0.4,0.5,1.3,1,1.7s1,0.8,1.4,1.2
		c0.4,0.4,1,0.7,1.2,1.3c0.1,0.3-0.3,0.9,0,1c0.3,0.2,0.9,0.1,1,0.4c0.2,0.5,0.8,0.8,1,1.4c0.2,0.6,0.1,1.2-0.2,1.8
		c-0.3,0.7,0.2,0.8,0.4,1.4c0,0.1,0.2,0.3,0.2,0.4c0,0.1,0,0.1,0.1,0.2l0,0.1c0,0,0,0-0.1,0c-0.2,0-0.4,0.1-0.6,0.3
		c-0.1,0.1-0.1,0.2-0.2,0.3c0,0,0,0,0-0.1c-0.3-1.2-0.7-2.4-1.3-3.5c-0.1-0.3-0.6-1.4-1.1-1.4c-0.3-0.4-1.8-1.5-1.7-2
		s-0.7-1.5-1.7-2.4c-0.9-0.7-1.9-1.3-3-1.7l-0.7-0.2c-0.3,0-0.5,0-0.8,0.2c-0.2,0.1-0.4,0.4-0.4,0.5c0.1,0.3,0.2,0.6,0.4,0.8
		c0.1,0.1,0.3,0.2,0.4,0.3c0.1,0.1,0.2,0.1,0.3,0.2c0.7,0.2,1.3,0.6,1.8,1.1c0.6,0.6,1.3,1.2,2,1.7c0.5,0.5,1,1.1,1.4,1.7l1.7,2.4
		c0.5,0.6,0.8,1.3,1.1,2.1c0.2,0.7,0.4,1.4,0.5,2.1c0.2,0.8,0,1.7-0.5,2.4c-0.1,0.1-0.3,0.2-0.4,0.2c-0.1,0-0.3,0-0.4,0
		c-0.3-0.1-0.6-0.4-0.8-0.7c-0.3-0.5-0.6-1-0.9-1.5c-0.3-0.6-0.6-1.2-0.9-1.8c-0.1,0-0.5-1.6-1.1-1.6c-0.3-0.4-0.7-0.8-1.1-1.2
		c-0.5-0.5-0.9-0.8-0.9-1.1c0.1-0.6-1-1.7-2.5-2.3c-1.1-0.5-2.3-0.8-3.5-1L37.2,52c-0.3,0-0.5,0-0.7,0.2c-0.1,0.1-0.2,0.1-0.3,0.2
		c-0.1,0.1-0.3,0.1-0.3,0.2c-0.1,0.2-0.2,0.4-0.1,0.6c0,0.2,0.1,0.4,0.3,0.5c0.2,0.2,0.4,0.4,0.7,0.5c0.2,0.1,0.3,0.2,0.5,0.2
		c0.8,0.2,1.6,0.4,2.3,0.8c1,0.4,1.9,1,2.5,1.2c0.1,0.1,0.2,0.1,0.3,0.2l0.5,0.5c0.4,0.4,0.7,0.8,0.7,0.8l0.5,0.8l0.4,0.7l0.2,0.3
		c0.1,0.1,0.1,0.3,0.2,0.4c0.1,0.2,0.3,0.4,0.4,0.6c0.5,0.7,1,1.4,1.4,2.2c0.4,0.7,0.6,1.5,0.6,2.3c0,0.4-0.1,0.7-0.4,1
		c-0.1,0.1-0.1,0.1-0.2,0.2c-0.1,0-0.2,0.1-0.2,0.1c-0.1,0-0.2,0-0.2,0c-0.1,0-0.2,0-0.3,0c-1-0.2-1.9-0.7-2.7-1.3c0,0,0,0,0,0
		c-0.1-0.1-0.2-0.3-0.2-0.4c-0.7-1-1.5-1.8-2.3-2.2c0,0,0,0,0,0c0,0,0,0,0,0l0,0c-2.4-2.1-5.3-3.6-8.4-4.4c-0.2-0.1,0,0-0.6-0.1
		c-0.6-0.1-1.4,0.2-1.3,0.8c0.1,0.3,0.3,0.6,0.6,0.8l0.5,0.2c0.2,0.2,0.5,0.3,0.8,0.4c1.7,0.5,3.3,1.2,4.9,2.1
		c0.7,0.4,1.6,0.8,1.5,2c0,0.1,0,0.2,0,0.2c0,0.1,0,0.1,0.1,0.1c0.1,0.1,0.1,0.1,0.2,0.2c0.3,0.2,0.6,0.3,0.9,0.3
		c0.1,0.1,0.1,0.2,0.2,0.2c0.3,0.3,0.5,0.6,0.8,0.9c0.1,0.2,0.2,0.3,0.3,0.5l0.2,0h0.1c0.2,0.1,0.3,0.2,0.3,0.2
		c0.2,0.5,0.4,0.9,0.5,1.5c0,0.2,0,0.3,0,0.5c0,0,0,0,0,0l-0.1,0.1c-0.4,0.2-1,0.3-1.4,0.2c-1.2-0.3-2.4-0.8-3.4-1.6
		c-1.1-0.7-2.3-1.5-3.4-2.3L33,64.9c-0.2-0.1-0.3-0.2-0.5-0.3s-0.4-0.1-0.6-0.2c-0.4,0-0.7,0.1-1-0.2c-0.3-0.3-0.5-0.4-0.7,0
		c-0.3,0.7-1,1-1.7,0.8c-0.6-0.2-1.2-0.3-1.9-0.2c-0.2,0.1-1,0.2-1.1-0.1c0,0,0,0-0.1-0.1l-0.2-0.3c-0.1-0.2-0.2-0.4-0.3-0.6
		c-0.2-0.4-0.3-0.8-0.4-1.2C24.3,61.3,24.6,60.1,25.4,59.1z"/>
	<path class="st0" d="M62.6,226.7c0.3-0.1,0.6-0.3,0.9-0.5c0.4-0.3,0.6-0.7,0.7-1.1c0-0.4,0-0.7,0-1.1c-0.1-0.3-0.1-0.6-0.1-0.9
		c-0.1-0.6-0.1-1.2-0.1-1.8c0-1.2,0.1-2.4,0.1-3.6c0.1-0.7,0.1-1.4,0.1-1.7c0-1.7,0-3,0-4.3c0-1.4-0.1-2.9-0.1-4.2
		c0-0.7-0.1-1.4-0.2-1.9c-0.2-1.2-0.4-1.3-0.6-0.1c-0.3,1.6-0.4,3.2-0.5,4.8c-0.1,1.8-0.2,3.6-0.2,5.4c0,0.8,0,1.8,0,2.6
		c0.1,1.2,0.1,2.4,0.1,3.7c0,0.6,0,1.2,0,1.8v0.9c0,0.1,0,0.1-0.1,0.2c-0.4,0.3-0.9,0.5-1.4,0.6c-0.6,0.1-1.2,0.2-1.7,0.3
		c-1.2,0.2-2.3,0.3-3.5,0.3c-0.3,0-0.5,0-0.7,0.1c-0.3,0.3-0.3,0.7,1.7,0.9l1,0.1c1,0.1,2.1,0.1,3.1-0.1
		C61.5,227.1,62.1,226.9,62.6,226.7z"/>
	<path class="st0" d="M23.5,181.4l0.8-2c0.1-0.3,0.3-0.7,0.4-1l0.3-1c0.4-1.3,0.7-2.6,0.9-3.9c0.2-1.6,0.4-3.1,0.5-4.7
		c0-0.2,0-0.5,0-0.8c0-1.3,0.1-2.7,0.2-4c0.1-1.1,0.2-2.3,0.3-3.4c0-0.6,0.1-1.3,0.2-1.9c0.1-0.8,0.2-1.7,0.1-2.5
		c0-0.6-0.1-1.1-0.1-1.7c-0.2-2-0.1-4,0.1-5.9c0.1-0.4,0.1-0.9,0.1-1.3c-0.1-1-0.2-2-0.4-2.9c0,0,0-0.1,0-0.1
		c-0.1-0.1-0.2-0.1-0.2-0.1c-0.1,0.1-0.2,0.3-0.3,0.4c-0.4,0.6-0.6,1.3-0.5,2c0,0.8,0.1,1.7,0.2,2.5c0.2,0.7,0.2,1.5,0,2.2
		c-0.3,1.3-0.4,2.6-0.4,3.9c0.1,0.6,0.1,1.1,0.1,1.7c0,0.7,0.1,1.3,0.3,2c0.1,0.4,0.1,0.8,0.1,1.1c0,0.7-0.1,1.4-0.2,2.1
		c0,0.6-0.1,1.1-0.2,1.7c-0.3,1.7-0.6,3.3-0.7,5c0,0.4,0,0.8-0.1,1.3c-0.1,1.5-0.4,2.9-0.8,4.4c-0.3,1.1-0.6,2.2-1.1,3.4
		c-0.4,1.1-0.9,2.2-1.3,3.3c-0.2,0.4-0.3,0.9-0.5,1.4c-0.4,1.3-0.6,2.6-0.7,3.9c0,1.1,0,2.2,0.1,3.3c0,0.4,0,0.8,0,1.2
		s-0.1,0.6-0.1,1.1c0,0.5,0,0.9,0,1.4c0,0.5,0.2,0.9,0.5,1.2c0.3,0.2,0.5,0.1,0.7-0.4c0.1-0.2,0.1-0.3,0.2-0.5
		c0.3-1.6,0.3-3.3,0.2-4.9c-0.1-1.2-0.1-2.3,0.1-3.5C22.6,184,23,182.7,23.5,181.4z"/>
	<path class="st0" d="M26.4,96.4c0-0.1,0-0.1-0.1-0.1c0,0-0.1,0-0.1,0.1c0,0.1,0,0.2,0,0.3c0,1.2-0.2,2.4-0.6,3.6
		c-0.1,0.3-0.1,0.6-0.2,0.9c-0.2,1.8-0.3,3.6-0.3,5.4l-0.2,3.6c-0.1,0.2-0.1,0.5-0.1,0.7c0,0.5-0.1,1-0.1,1.5c0,0.7,0.1,1.5,0.1,2.2
		c0,0.6,0.2,1.3,0.6,1.8c0.3,0.3,0.4,0.3,0.6-0.2c0.1-0.1,0.1-0.2,0.1-0.3c0.2-1.4,0.3-2.7,0.2-4.1c-0.1-1.1-0.1-2.1,0-3.2
		c0.1-1.6,0.3-3.2,0.3-4.8c0-0.6,0.1-1.3-0.1-1.9c0-0.9-0.1-1.8-0.1-2.6c-0.1-0.9-0.1-1.8,0-2.7C26.4,96.6,26.4,96.5,26.4,96.4z"/>
	<path class="st0" d="M27.7,91c0-0.3,0.1-0.7,0.2-1c0.2-0.8,0.4-1.7,0.5-2.5c0.3-1.3,0.6-2.5,1-3.8c0.3-1,0.6-1.9,0.8-2.9
		c0-0.1,0-0.3,0.1-0.4c0-0.2-0.1-0.3-0.3-0.2c-0.2,0.1-0.4,0.3-0.6,0.4c-0.3,0.3-0.5,0.7-0.7,1.1c-0.5,1.2-0.9,2.4-1.2,3.6
		c-0.3,1.2-0.5,2.5-0.8,3.7c-0.1,0.6-0.2,1.2-0.1,1.8c0,0.2,0.1,0.4,0.1,0.6c0,0.5,0.1,0.9,0.3,1.4c0.1,0.3,0.2,0.2,0.3,0
		C27.5,92.2,27.6,91.6,27.7,91z"/>
	<path class="st0" d="M26.7,135c-0.1-0.5-0.2-0.9-0.3-1.3c-0.1-0.3-0.2-0.4-0.4-0.4c-0.1,0-0.2,0.2-0.2,0.4c-0.2,0.7-0.3,1.3-0.2,2
		c0,0.3,0,0.6,0.2,0.9c0.2,0.5,0.3,1.1,0.2,1.6c0,0.1,0,0.2,0,0.3c0,0.3,0.1,0.6,0.3,0.9c0.1,0.2,0.4,0.1,0.4-0.2c0-0.2,0-0.5,0-0.7
		c-0.1-0.8-0.1-1.7,0-2.5C26.7,135.6,26.7,135.3,26.7,135z"/>
	<path class="st0" d="M25.9,127.5c0.1-0.8,0.1-1.5,0-2.3l-0.1-1.1c0-0.4-0.1-0.8-0.3-1.2c0-0.1-0.1-0.1-0.1-0.1c0,0,0,0.1,0,0.2
		c-0.1,1.1-0.1,2.2-0.1,3.3c0,0.4,0,0.7,0.1,1.2c0,0.4,0.1,0.7,0.3,0.7S25.9,127.8,25.9,127.5z"/>
	<path class="st0" d="M49.9,183.8c-0.1,0.4-0.2,0.7-0.5,1c-0.8,0.8-0.8,1.9-1.2,2.8c-0.3,0.7-0.5,1.5-0.9,2.2
		c-0.3,0.8-0.9,1.5-1.6,1.9c-0.2,0.1-0.2,0.3-0.3,0.5c-0.3,0.5-0.5,1-0.7,1.5c-0.2,0.5-0.5,1-0.7,1.5c-0.5,1-1.2,1.9-2.1,2.7
		c-0.1,0.1,0.1,0.4,0.3,0.6c0.3,0.3,0.7,0.5,1.1,0.6c0.3,0,0.7,0.1,0.9,0c0.3-0.4,0.6-0.8,0.9-1.2c0.8-1.5,1.3-3,2.6-4.2
		c0.3-0.2,0.5-0.6,0.5-1c-0.1-0.9,0.1-1.7,0.4-2.5c0.1-0.4,0.3-0.7,0.6-1.1c0.2-0.4,0.5-0.7,0.8-1c0.2-0.2,0.5-0.5,0.4-0.8
		c-0.3-0.8,0.3-1.3,0.9-1.9c0.4-0.4,0.7-0.9,0.9-1.4c0.1-0.6,0-1.1-0.2-1.6c-0.2-0.4-0.2-0.8,0-1.2c0.2-0.8,0.7-1.5,1-2.2
		c0.2-0.5,0.3-1,0.2-1.5c-0.4-1.1-1-2.3-1.6-3.5c0.3-0.4,0.7-0.7,0.8-1c0.1-1.7,0.1-3.4,0.1-5.1c0-0.1-0.3-0.2-0.5-0.2
		c-0.2,0-0.4,0-0.6,0.1c-0.3,0.4-0.8,0.7-0.8,1c-0.1,1.7-0.1,3.5-0.2,5.2c0,0.9,1.1,1.7,0.8,2.5c1,0.9,0.6,1.8-0.1,2.6
		c-0.4,0.5-0.7,1.2-0.9,1.9c-0.1,0.6-0.2,1.2-0.2,1.9c0,0.2,0,0.4,0,0.5C49.9,183.4,49.9,183.6,49.9,183.8z"/>
	<path class="st0" d="M42.9,215.9c0.3,0.3,0.7,0.5,1.1,0.6c1.1,0.2,2.2,0.2,3.4,0.3c1.2,0.1,2.4-0.1,3.5,0.7
		c0.3,0.2,0.6,0.2,0.9,0.1c1.4-0.1,2.7,0.5,3.5,1.6c0.6,0.7,1.3,0.6,2,0.8c0.2,0.1,0.4-0.4,0.8-0.7c-0.3-0.5-0.5-0.9-0.7-1
		c-1,0.1-2-1-2.9-1.8c-0.6-0.6-1.4-1-2.3-1c-0.6,0-1.2-0.1-1.7-0.2c-0.6-0.2-1.2-0.4-1.8-0.5c-1.8-0.4-3.8,0.3-5.6-1
		c-0.1-0.1-0.3,0.2-0.4,0.5c-0.1,0.3-0.1,0.7-0.1,1C42.6,215.5,42.7,215.7,42.9,215.9z"/>
	<path class="st0" d="M38.8,205.8c-0.4-0.1-0.9-0.1-0.9,0.1c-0.2,0.5-0.3,1.1-0.3,1.7c0,0.1,0.3,0.5,0.5,0.6c0.3,0.2,0.6,0.3,1,0.4
		c0.3-0.1,0.3-0.4,0.5-0.7c0.1-0.3,0.2-0.7,0.3-1c0.1,0,0-0.1,0-0.2C39.8,206.3,39.3,205.9,38.8,205.8z"/>
	<path class="st0" d="M36.4,211.9c0-0.2,0-0.3-0.1-0.4c-0.2-0.2-0.4-0.4-0.7-0.6c-0.5-0.1-0.8-0.2-1,0c-0.2,0.2-0.3,0.6-0.1,0.8
		c0.1,0.1,0.3,0.3,0.5,0.3c0.1,0,0.2,0,0.3,0.1c0.3,0.1,0.7,0.1,1,0C36.4,212,36.4,212,36.4,211.9z"/>
	<path class="st0" d="M35,215.1c-0.9,0.6-0.9,0.9-0.6,1c0.4,0.1,0.8,0.1,1.2,0c0.2-0.1,0.4-0.3,0.5-0.5c0.1-0.1,0.2-0.5,0.2-0.5
		C36,214.9,35.9,214.8,35,215.1z"/>
	<path class="st0" d="M73.4,82.5c0-0.6,0-1.3-0.1-1.9c0-0.3,0-0.7,0-1c0-0.7,0-1.3-0.1-2c-0.1-0.6-0.2-1.2-0.1-1.8
		c0-0.3,0-0.7-0.1-1c-0.1-0.4-0.2-0.7-0.2-1.1c-0.1-0.3,0-0.6-0.1-0.9c-0.1-0.3-0.1-0.7-0.3-0.8c-0.2-0.1-0.6,0.5-0.6,0.7
		s0,0.3,0,0.4c0,0.2,0,0.3,0,0.5c-0.1,0.3,0,0.6,0.2,0.8c0.2,0.2,0.2,0.5,0.1,0.7C72,75.3,72,75.7,72,76c0,0.4-0.1,0.7-0.2,1.1
		c0,0.2,0,0.3,0.1,0.5c0.1,0.4,0.2,0.9,0.3,1.4c0,0.5,0,0.9,0,1.4c0,0.5,0,1,0,1.6c0,0.6,0.1,1.1,0.1,1.6c0.1,0.8,0,1.6-0.1,2.4
		c0,0.3,0,0.7,0,1c0,0.3-0.2,0.6-0.1,1c0.1,0.2,0.1,0.5,0,0.7c-0.1,0.3-0.1,0.6-0.1,0.9c-0.1,1-0.3,1.9-0.3,2.7
		c-0.1,0.9-0.2,1.4-0.2,2c-0.1,0.6-0.1,1.2,0,1.9c0,0.3,0,0.2,0.3,0.3s0.5-0.1,0.7-0.6c0.1-0.3,0.2-0.6,0.2-0.9
		c0.1-0.7,0.2-1.4,0.4-2.1c0.2-0.6,0.2-1.2,0.1-1.8c0-0.2,0-0.4,0-0.6c0.1-0.9,0.2-1.8,0.2-2.7c0.1-0.7,0.1-1.4,0-2.1
		c0-0.2,0-0.4,0-0.6C73.4,84,73.4,83.2,73.4,82.5z"/>
	<path class="st0" d="M72,97.5c0-0.3,0-0.5-0.1-0.8c0-0.1-0.2-0.1-0.2-0.1c-0.3,0.1-0.5,0.2-0.6,0.4c-0.2-1.4-0.6-2.7-1.1-4
		c-0.4-1.1-0.3-1-0.7-0.9c-0.4,0-0.2,1,0.2,2.9c0.1,0.6,0.2,1.2,0.2,1.8c0.1,0.6,0.1,1.2,0.1,1.9c0.2,3.1-0.1,6.2-0.7,9.2
		c-0.3,2.6-1,5.2-1.2,7.8c0,0.7-0.2,1.7-0.4,2.5c-0.3,1.9-0.7,3.8-0.9,5.8c-0.2,2-0.3,3.9-0.5,5.8c-0.5,2.9-0.9,5.9-1.3,8.8
		c-0.1,0.8-0.3,1.7-0.4,2.6c-0.5,3.3-1.1,6.5-1.5,9.9c-0.4,2.7-0.6,5.5-0.7,8.2c0,0.7,0,1.4,0,2.2c0,0.7,0,1.5,0,2.2
		c0,2.8,0.2,5.6,0.3,8.4c0.1,2.5,0.2,5.1,0.1,7.7c-0.1,1.3-0.1,2.8,0,4.3c0.1,1.5,0.1,3.1,0.1,4.7v3.9c-0.1,1.2,0,2.3,0.2,3.5
		c0.2,0.4,0.6-1.3,0.7-2.4c0-0.5,0.1-0.9,0.1-1.6s0-1.4,0.1-2.1c0.1-1.2,0.1-2.4-0.1-3.5c-0.2-1-0.2-2.1-0.1-3.1
		c0.1-1.5,0.2-2.9,0.2-4.4c0-1.5,0.2-3,0.2-4.5c0-0.7-0.1-1.4-0.1-2.1c-0.1-2-0.2-4-0.3-6c-0.2-2-0.2-4-0.2-6
		c0.1-2.3,0.3-4.5,0.6-6.8s0.5-4.5,0.8-6.8c0.5-3.4,1-6.8,1.7-10.1c0.3-1.3,0.4-2.8,0.6-4.2c0.2-1.6,0.7-2.9,0.7-4.6
		c0-1,0.1-2,0.3-2.9c0.2-1.2,0.4-2.5,0.6-3.8c0.7-4.2,1.7-8.4,2.1-11.6c0.3-1.8,0.5-3.7,0.7-5.5c0.1-0.2,0.2-0.5,0.2-0.7
		c0-0.3,0.1-0.5,0.1-0.8l0,0c0.1-0.6,0.2-1.2,0.2-1.8C71.9,99.7,72,98.6,72,97.5z"/>
	<path class="st0" d="M70.6,68.7l0.3,0.9c0.1,0.1,0.1,0.3,0.2,0.4c0,0.1,0.1,0.1,0.2,0.2c0.2,0,0.4-0.1,0.4-0.3
		c0.2-0.4,0.3-0.8,0.2-1.2c-0.1-0.4-0.1-0.8-0.1-1.3c0-0.2-0.1-0.4-0.1-0.6c-0.2-0.5-0.4-1.1-0.5-1.6c-0.2-0.6-0.5-1.1-0.9-1.5
		c-0.1-0.1-0.1-0.1-0.2-0.1c-0.3,0.1-0.7,0.2-0.7,0.7c0,0.1,0,0.2-0.1,0.3c-0.1,0.5,0,1,0.3,1.4c0.3,0.4,0.5,1,0.5,1.5v0.4
		C70.4,68.1,70.5,68.4,70.6,68.7z"/>
	<path class="st0" d="M21,216.6c-0.1,0-0.2-0.1-0.3-0.1c-0.3,0-0.5,0.1-0.8-0.1c-0.2,0-0.5-0.2-0.7,0.1c0,0.1-0.1,0.1-0.2,0.1
		c-0.3,0-0.7,0-1,0.1c-0.2-0.2-0.5-0.1-0.7,0c-0.1,0-0.1,0-0.2,0l-0.8-0.1c-0.2,0-0.4,0-0.7,0c-0.1,0-0.2,0-0.4-0.1
		c-0.2-0.1-0.4-0.1-0.7-0.1c-0.2,0-0.4,0-0.6-0.1c-0.1-0.1-0.2-0.1-0.3,0c-0.1,0-0.3,0-0.4-0.1c-0.1,0-0.2-0.1-0.3-0.1
		c-0.1,0-0.2-0.1-0.3,0.1c-0.1,0.2-0.1,0.5-0.1,0.7l0.1,0.1c0,0.1,0.1,0,0.1,0.2c0.1,0.2,0.2,0.2,0.3,0s0.2-0.1,0.3,0
		c0.1,0.1,0.2,0.3,0.3,0.3c0.1,0,0.2,0.2,0.4,0.3c0.1,0,0.1,0,0.2,0c0.4-0.1,0.7-0.1,1.1,0c0.2,0.1,0.4,0.1,0.6,0.1
		c0.2,0,0.4,0,0.6-0.1c0.3-0.1,0.6,0,0.9,0.1c0.1,0,0.2,0,0.4-0.1c0.1,0,0.3,0.2,0.4,0.1c0.1,0,0.2,0,0.3,0c0.1,0,0.2,0,0.3,0
		c0.3,0,0.7,0.1,1,0l0.9,0c0.3,0,0.5-0.2,0.6-0.4c0.1-0.1,0.1,0,0-0.4C21.3,216.8,21.2,216.7,21,216.6z"/>
	<path class="st0" d="M11.8,214.8c0-0.2-0.2-0.4-0.4-0.6c-0.1,0-0.1,0-0.2,0c-0.3,0-0.6,0-0.9,0.2l-0.1,0.1
		c-0.2,0.2-0.3,0.4-0.1,0.5c0.1,0.1,0.2,0.2,0.2,0.3c0,0.1,0,0.3,0,0.4v0.3c0,0.2,0,0.5,0.2,0.5c0.2,0.1,0.4,0.2,0.6,0.3
		c0.1,0,0.2,0,0.3,0c0.2-0.1,0.3-0.3,0.3-0.5c0-0.2,0-0.3,0-0.5c0-0.1,0.1-0.2,0.1-0.2C11.8,215.2,11.8,215,11.8,214.8z"/>
	<path class="st0" d="M100.5,63c0.2,0,0.5,0,0.6-0.1c0.3-0.4,0.5-0.8,0.6-1.2l2.9-9.1c0.2-0.8,0.4-1.8,0.5-2.6l0-1.3
		c0-0.4,0-0.9,0-1.3l-0.2-1.3c-0.1-0.4-0.2-0.8-0.3-1.2c-0.2-0.8-0.5-1.5-0.9-2.3c-0.1-0.3-0.3-0.6-0.6-0.7c-1.2-0.4-1.6-1.3-2.3-2
		c-0.7-0.7-1.4-1.7-2.4-1.8c-1.3-0.1-1.6-1.4-2.6-1.8c-0.4-0.2-0.8-0.3-1.3-0.4c-0.2-0.1-0.4-0.1-0.6-0.1c-1-0.1-0.7,0.4,0.2,1
		c0.4,0.4,0.9,0.7,1.3,0.9c1,0.5,1.9,1.1,2.8,1.8c0.3,0.2,0.6,0.4,1,0.6c0.3,0.1,0.8,0.3,1.1,0.4c0.3,0.1,0.4,0.4,0.6,0.6
		c0.9,1,1.6,2.2,2.1,3.5c0.5,1.4,0.7,2.9,0.6,4.3c-0.1,0.4,0,0.8-0.1,1.1l-0.2,1.1c-0.1,0.7-0.3,1.5-0.6,2.2l-1.3,4
		c-0.2,0.5-0.5,1.1-0.9,1.5c-0.7,0.8-0.5,1.7-0.4,2.6c0,0.5,0,1-0.1,1.5C100.3,62.8,100.3,63,100.5,63z"/>
	<path class="st0" d="M59,40.8c0.3-0.5,0.5-1,0.5-1.6c0-0.6,0.4-1.1,1-1.3c1-0.3,1.8-0.9,2.2-1.8c0.2-0.4,0.6-0.8,1-1l1.4-0.7
		l1.2-0.4l1.2-0.4c0.4-0.1,0.9-0.2,1.6-0.4c0.2,0,0.3-0.1,0.5-0.2l0.9-0.4c0.1,0,0.1-0.5,0.1-0.6s-0.1-0.2-0.2-0.2h-0.9
		c-0.2,0-0.3,0-0.5,0l-1.6,0.3l-1.2,0.4c-0.9,0.2-1.8,0.6-2.6,1c-0.4,0.2-0.8,0.4-1.2,0.6c-0.4,0.3-0.7,0.7-0.8,1.1
		c-0.1,0.3-0.3,0.5-0.6,0.6c-0.2,0.2-0.5,0.3-0.8,0.4c-0.3,0.2-0.5,0.3-0.8,0.4c-0.3,0.2-0.5,0.4-0.7,0.6c-0.6,0.7-1.1,1.5-1.5,2.3
		l-0.5,1.3c-0.1,0.4-0.2,0.9-0.3,1.3c-0.1,0.7-0.2,1.3-0.3,2c0,0.7,0.2,1.3,0.7,1.9c0.2,0.2,0.1,0.5,0.1,0.8
		c0.1,0.8,0.2,1.6,0.3,2.3c0,0.2,0.1,0.4,0.2,0.5l0.2,0.5c0.1,0.2,0.2,0.4,0.4,0.5c0,0,0.1,0,0.2,0.1c0.3,0.1,0.6-0.2,0.6-0.5
		c0-0.2,0-0.4,0-0.5v-0.2c-0.1-1.3-0.3-2.6-0.4-3.8c0-0.4-0.2-0.9-0.4-1.2c-0.2-0.3-0.2-0.8,0.1-1c0.2-0.2,0.4-0.4,0.3-0.6
		c-0.3-0.3-0.3-0.8-0.1-1.2C58.5,41.4,58.8,41.2,59,40.8z"/>
</g>
</svg>
